<?xml version="1.0" standalone="no"?>
<!DOCTYPE svg PUBLIC "-//W3C//DTD SVG 1.1//EN" "http://www.w3.org/Graphics/SVG/1.1/DTD/svg11.dtd" >
<svg xmlns="http://www.w3.org/2000/svg">
<metadata>Generated by IcoMoon</metadata>
<defs>
<font id="icomoon" horiz-adv-x="1024">
<font-face units-per-em="1024" ascent="896" descent="-128" />
<missing-glyph horiz-adv-x="1024" />
<glyph unicode="&#x20;" d="" />
<glyph unicode="&#x78;" glyph-name="x" horiz-adv-x="1001" d="M281 543q-27-1-53-1h-83q-18 0-36.5-6t-32.5-18.5-23-32-9-45.5v-76h912v41q0 16-0.5 30t-0.5 18q0 13-5 29t-17 29.5-31.5 22.5-49.5 9h-133v-97h-438v97zM955 310v-52q0-23 0.5-52t0.5-58-10.5-47.5-26-30-33-16-31.5-4.5q-14-1-29.5-0.5t-29.5 0.5h-32l-45 128h-439l-44-128h-63q-20 0-45 1-25 0-41 9.5t-25.5 23-13.5 29.5-4 30v167h911zM163 247q-12 0-21-8.5t-9-21.5 9-21.5 21-8.5q13 0 22 8.5t9 21.5-9 21.5-22 8.5zM316 123q-8-26-14-48-5-19-10.5-37t-7.5-25-3-15 1-14.5 9.5-10.5 21.5-4h365q23 0 34 12t2 38q-5 13-9.5 30.5t-9.5 34.5q-5 19-11 39h-368zM336 498v228q0 11 2.5 23t10 21.5 20.5 15.5 34 6h188q31 0 51.5-14.5t20.5-52.5v-227h-327z" />
<glyph unicode="&#xe600;" glyph-name="music" horiz-adv-x="1000" d="M803.576 847.884c10.409 2.805 22.862 3.906 31.602-3.678 9.754-8.403 10.606-22.241 10.818-34.214 0.018-206.63 0-413.241 0.018-619.872 1.086-24.249-5.471-48.763-18.119-69.422-13.235-21.459-34.605-37.499-58.622-44.907-22.331-7.337-46.154-8.207-69.425-6.732-30.698 2.044-62.301 9.539-87.134 28.581-26.577 20.040-41.446 53.968-39.189 87.044 0.869 16.485 4.992 33.574 15.952 46.382 15.011 18.137 38.175 26.825 60.56 31.673 27.943 6.271 56.704 5.845 85.147 6.927 15.525 1.243 32.827 3.126 44.607 14.478 10.624 10.676 11.492 26.734 11.617 40.928 0.055 100.064 0.017 200.128 0 300.21-0.303 7.656 0.25 15.527-1.76 23.004-1.276 4.512-5.433 7.816-10.107 8.065-9.132 0.657-18.013-2.186-26.859-3.926-114.192-24.994-228.384-49.97-342.591-74.946-5.827-1.529-13.058-3.215-15.473-9.486-4.281-10.569-3.092-22.241-3.394-33.377 0.035-145.027-0.019-290.067 0.017-435.109 0.177-10.249-0.248-20.569-1.901-30.714-5.825-29.681-25.865-55.635-52.085-70.327-32.581-18.615-71.325-22.542-108.169-20.428-30.466 1.937-62.478 10.961-84.061 33.717-20.306 21.263-27.607 51.8-26.399 80.489 0.835 18.969 8.331 37.816 22.027 51.175 16.042 15.792 37.946 23.963 59.708 28.085 35.211 6.856 72.303 0.054 106.642 11.973 10.090 3.251 19.683 9.858 24.213 19.717 5.205 10.18 5.33 21.885 5.435 33.042 0 161.065 0 322.112 0 483.159 0.339 8.616 0.499 17.995 5.792 25.261 4.849 7.087 13.234 10.534 21.388 12.115 146.574 30.378 293.169 60.683 439.745 91.113z" />
<glyph unicode="&#xe601;" glyph-name="mergecells" d="M62 834v-900h900v900zM343.25-9.75h-225v225h225zM343.25 271.5h-225v225h225zM343.25 552.75h-225v225h225zM399.5 777.75h225v-225h-225zM905.75-9.75h-506.25v506.25h506.25zM905.75 552.75h-225v225h225z" />
<glyph unicode="&#xe602;" glyph-name="anonymous-iconfont" horiz-adv-x="1025" d="M106.723 36.58h194.146c-123.033 102.735-184.48 228.115-184.48 376.279 0 80.503 16.156 152.721 48.606 216.654 32.312 63.933 78.018 114.334 137.117 151.34s130.075 55.51 212.926 55.51c82.16 0 150.65-16.984 205.469-50.953s99.973-82.712 135.322-146.231c35.35-63.519 53.162-138.913 53.162-226.32 0-148.026-61.447-273.406-184.48-376.279h194.146v-104.944h-345.901v98.316c144.022 67.109 215.964 188.761 215.964 364.68 0 99.144-25.407 180.752-76.222 244.823s-116.819 96.245-198.151 96.245c-83.679 0-150.65-32.312-200.912-96.797-50.125-64.485-75.256-143.884-75.256-238.195 0-178.405 71.666-301.99 214.859-370.756v-98.316h-346.315v104.944z" />
<glyph unicode="&#xe603;" glyph-name="simpleupload" d="M196.64 192l121.92 214.080 122.4-214.080h-244.32zM471.2 192l183.36 305.76 183.36-305.76h-366.72zM901.28 672v-576h-768v576h768M901.28 720h-768c-26.51 0-48-21.49-48-48v0-576c0-26.51 21.49-48 48-48h768c26.51 0 48 21.49 48 48v0 576c0 26.51-21.49 48-48 48v0z" />
<glyph unicode="&#xe604;" glyph-name="justifycenter" d="M72.8 721.92h864v-96h-864v96zM216.8 529.92h576v-96h-576v96zM72.8 337.92h864v-96h-864v96zM216.8 145.92h576v-96h-576v96z" />
<glyph unicode="&#xe605;" glyph-name="justifyleft" d="M79.040 721.92h864v-96h-864v96zM79.040 337.92h864v-96h-864v96zM79.040 529.92h576v-96h-576v96zM79.040 145.92h576v-96h-576v96z" />
<glyph unicode="&#xe606;" glyph-name="justifyjustify" d="M78.080 719.040h864v-96h-864v96zM78.080 527.040h864v-96h-864v96zM78.080 335.040h864v-96h-864v96zM78.080 143.040h864v-96h-864v96z" />
<glyph unicode="&#xe607;" glyph-name="justifyright" d="M944 629.28h-864v96h864v-96zM944 245.28h-864v96h864v-96zM944 437.28h-576v96h576v-96zM944 53.28h-576v96h576v-96z" />
<glyph unicode="&#xe608;" glyph-name="drafts" d="M773.6 558.24v144c0 16.171-13.109 29.28-29.28 29.28h-204.48v60.48c0 32.342-26.218 58.56-58.56 58.56v0h-117.12c-32.342 0-58.56-26.218-58.56-58.56v0-58.56h-204.48c-16.171 0-29.28-13.109-29.28-29.28v0-585.12c0-16.171 13.109-29.28 29.28-29.28h263.040v-175.68h409.44l175.68 175.68v468.48zM364.16 792h117.12v-58.56h-117.12zM188.48 674.88h467.52v-58.56h-467.52zM773.6-2.88v92.64h92.64zM890.72 148.32h-175.2v-175.68h-292.8v528h468z" />
<glyph unicode="&#xe609;" glyph-name="touppercase" d="M295.040 612.48l-227.040-542.88h96l54.72 130.56h240.96l52.32-130.56h96l-226.56 542.88zM247.040 276.48l75.84 192c7.54 15.188 13.096 32.82 15.732 51.391l0.108 0.929h2.4c1.45-19.218 6.077-37 13.365-53.335l-0.405 1.015 72.96-192zM923.84 160.32v127.68q0 132.48-134.88 130.56t-156.96-101.76l69.6-19.68q8.64 60.96 84.96 56.64 72 4.32 65.28-58.56c-27.816-13.661-60.542-21.65-95.134-21.65-1.655 0-3.305 0.018-4.951 0.055l0.245-0.004q-126.24-12.96-128.16-110.88t119.52-93.6c3.592-0.33 7.77-0.517 11.991-0.517 42.154 0 79.931 18.737 105.457 48.337l0.152 0.18c0.095-16.602 7.701-31.408 19.588-41.206l0.092-0.074h72c-18.048 20.245-29.076 47.090-29.076 76.51 0 2.805 0.1 5.586 0.297 8.34l-0.021-0.37zM851.84 208.32q-6.72-72-96-78.24-58.56 0-56.64 34.56t69.6 48c31.209 0.582 59.933 10.746 83.482 27.662l-0.442-0.302zM604.64 567.36c99.36-4.8 192-29.28 196.8-51.84l55.2 7.68c-8.64 82.080-187.68 97.44-252 100.8v96l-162.24-122.88 162.24-121.92z" />
<glyph unicode="&#xe60a;" glyph-name="tolowercase" d="M287.232 650.752l-242.176-579.072h102.4l57.344 139.264h256l55.808-139.264h102.4l-240.128 579.072zM236.032 292.352l80.896 204.8c8.043 16.201 13.969 35.008 16.781 54.817l0.115 0.991h2.56c1.546-20.499 6.482-39.467 14.256-56.891l-0.432 1.083 77.824-204.8zM957.44 168.448v134.656q0 141.312-143.872 139.264t-166.912-106.496l74.24-20.992q9.216 65.024 90.624 60.416 76.8 4.608 69.632-62.464c-29.671-14.572-64.578-23.094-101.476-23.094-1.765 0-3.526 0.020-5.281 0.058l0.262-0.005q-134.656-13.824-136.704-118.272t127.488-99.84c3.832-0.351 8.288-0.552 12.79-0.552 44.964 0 85.26 19.986 112.488 51.56l0.162 0.192c0.101-17.709 8.214-33.502 20.894-43.954l0.098-0.078h76.8c-19.52 21.665-31.461 50.493-31.461 82.11 0 2.635 0.083 5.251 0.246 7.845l-0.018-0.355zM880.64 219.648q-7.168-76.8-102.4-83.456-62.464 0-60.416 36.864t74.24 51.2c0.422-0.004 0.921-0.006 1.421-0.006 33.336 0 64.256 10.344 89.726 27.997l-0.522-0.343zM774.656 602.624c-105.984-5.12-204.8-31.232-209.92-55.296l-58.88 8.192c11.776 87.552 200.704 102.4 268.8 106.496v102.4l173.056-130.048-173.056-129.536z" />
<glyph unicode="&#xe60b;" glyph-name="preview" horiz-adv-x="1097" d="M1012.571 77.349c16.775-16.037 27.203-38.592 27.203-63.583 0-48.551-39.358-87.909-87.909-87.909-25.042 0-47.638 10.471-63.65 27.273l-0.034 0.035-257.554 257.349c-52.32-30.926-113.143-48.96-178.354-48.96-0.082 0-0.178 0-0.274 0-193.992 0-351.272 157.184-351.428 351.139v0.015c0.078 194.030 157.388 351.291 351.429 351.291 0.072 0 0.144 0 0.217 0h-0.011c0.061 0 0.133 0 0.206 0 194.041 0 351.351-157.262 351.429-351.284v-0.007c0-65.074-18.034-125.76-48.96-178.080l257.691-257.28zM452.206 776.16c-0.061 0-0.133 0-0.206 0-145.514 0-263.481-117.943-263.52-263.448v-0.004c0.117-145.45 118.054-263.314 263.52-263.314 0.072 0 0.145 0 0.217 0h-0.011c0.061 0 0.134 0 0.206 0 145.466 0 263.403 117.865 263.52 263.303v0.011c0 145.538-117.982 263.52-263.52 263.52-0.072 0-0.145 0-0.217 0h0.011zM469.074 495.429v-85.714c0 0 0 0 0-0.001 0-14.202-11.513-25.714-25.714-25.714s-25.714 11.513-25.714 25.714c0 0 0 0.001 0 0.001v0 85.714h-85.714c-14.202 0-25.714 11.513-25.714 25.714s11.513 25.714 25.714 25.714v0h85.714v85.714c0 0 0 0 0 0.001 0 14.202 11.513 25.714 25.714 25.714s25.714-11.513 25.714-25.714c0 0 0-0.001 0-0.001v0-85.714h85.714c14.202 0 25.714-11.513 25.714-25.714s-11.513-25.714-25.714-25.714v0h-85.714z" />
<glyph unicode="&#xe60c;" glyph-name="insertvideo" d="M434.688 173.056l204.8 204.8-204.8 204.8v-409.6zM896 19.968h-768c-42.415 0-76.8 34.385-76.8 76.8v0 563.2c0 42.415 34.385 76.8 76.8 76.8v0h768c42.415 0 76.8-34.385 76.8-76.8v0-563.2c0-42.415-34.385-76.8-76.8-76.8v0zM128 685.568c-14.138 0-25.6-11.462-25.6-25.6v0-563.2c0-14.138 11.462-25.6 25.6-25.6h768c14.138 0 25.6 11.462 25.6 25.6v0 563.2c0 14.138-11.462 25.6-25.6 25.6v0z" />
<glyph unicode="&#xe60d;" glyph-name="emotion" d="M512 844.8c-254.493 0-460.8-206.307-460.8-460.8s206.307-460.8 460.8-460.8c254.493 0 460.8 206.307 460.8 460.8v0c0 254.493-206.307 460.8-460.8 460.8v0zM512-4.608c-214.622 0-388.608 173.986-388.608 388.608s173.986 388.608 388.608 388.608c214.622 0 388.608-173.986 388.608-388.608v0c0-214.622-173.986-388.608-388.608-388.608v0zM307.2 509.952c0.302-29.46 24.254-53.226 53.757-53.226 29.691 0 53.76 24.069 53.76 53.76 0 29.15-23.2 52.881-52.143 53.736l-0.079 0.002c-0.458 0.014-0.998 0.022-1.539 0.022-29.691 0-53.76-24.069-53.76-53.76 0-0.188 0.001-0.375 0.003-0.563v0.029zM609.792 509.952c0.312-29.453 24.26-53.209 53.757-53.209 29.691 0 53.76 24.069 53.76 53.76 0 28.97-22.914 52.587-51.607 53.718l-0.103 0.003c-0.305 0.006-0.666 0.010-1.027 0.010-29.691 0-53.76-24.069-53.76-53.76 0-0.183 0.001-0.367 0.003-0.55v0.028zM295.936 313.856c5.776-115.272 100.645-206.548 216.832-206.548s211.056 91.276 216.811 206.034l0.021 0.514z" />
<glyph unicode="&#xe60e;" glyph-name="selectall" d="M235.52 720.48l96 96h-34.080l-96-96h34.080zM175.52 694.56l-96-96v-33.6l96 96v33.6zM201.44 816.48l-121.92-121.92v-33.6l156 155.52h-34.080zM105.44 816.48l-25.92-25.92v-33.6l59.52 59.52h-33.6zM524.96 720.48l96 96h-34.080l-96-96h34.080zM175.52 405.12l-96-96v-34.080l96 96v34.080zM175.52 501.12l-96-96v-34.080l96 96v34.080zM428.96 720.48l96 96h-34.080l-96-96h34.080zM332.96 720.48l96 96h-34.080l-96-96h34.080zM175.52 597.12l-96-96v-34.080l96 96.48v33.6zM175.52 111.84l-96-96v-33.6l96 96v33.6zM818.24 720.48l96 96h-34.080l-96-96h34.080zM175.52 207.84l-96-96v-33.6l96 96v33.6zM722.24 720.48l96 96h-34.080l-96-96h34.080zM175.52 303.84l-96-96v-33.6l96 96v33.6zM626.24 720.48l96 96h-34.080l-96-96h34.080zM847.52 462.72l96 96v34.080l-96-96v-34.080zM399.2 48.48l-96-96h34.080l96 96h-34.080zM847.52 558.72l96 96v34.080l-96-96v-34.080zM303.2 48.48l-96-96h34.080l96 96h-34.080zM207.2 48.48l-96-96h34.080l96 96h-34.080zM847.52 688.8v-34.080l96 96v34.080l-96-96zM847.52 176.16l96 96v34.080l-96-96v-34.080zM685.76 48.48l-96-96h34.080l96 96h-34.080zM847.52 272.16l96 96v34.080l-96-96v-34.080zM589.76 48.48l-96-96h34.080l96 96h-34.080zM493.76 48.48l-96-96h34.080l96 96h-34.080zM847.52 368.16l96 96v34.080l-96-96v-34.080zM913.28-47.52l30.24 30.24v34.080l-64.32-64.32h34.080zM817.28-47.52l126.24 126.24v34.080l-160.32-160.32h34.080zM783.2 48.48l-96-96h34.080l96 96h-34.080zM847.52 78.72l96 96v34.080l-96-96v-34.080zM346.4 292.32q4.32-96 123.84-96c4.059-0.406 8.773-0.638 13.541-0.638 42.883 0 81.388 18.745 107.768 48.489l0.13 0.15c0.051-17.149 7.846-32.467 20.070-42.647l0.090-0.073h74.4c-18.887 20.982-30.44 48.893-30.44 79.502 0 2.427 0.073 4.836 0.216 7.227l-0.016-0.329v132.48q0 137.28-139.68 134.88t-161.28-103.2l72-20.16q9.12 62.88 87.84 58.56 74.4 4.32 67.68-60.96c-28.933-14.264-62.985-22.608-98.986-22.608-1.65 0-3.297 0.018-4.939 0.052l0.245-0.004q-130.56-13.44-132.48-114.72zM582.56 371.040v-31.68q-6.72-74.4-101.28-81.12-60.96 0-58.56 36t72 48c33.018 0.347 63.46 11.091 88.283 29.106l-0.443-0.306z" />
<glyph unicode="&#xe60f;" glyph-name="insertframe" d="M139.264 844.8v-921.6h739.328v624.64l-299.008 296.96zM184.32 799.744h378.88v-270.336h270.336v-563.2h-649.216zM512 477.696c-113.108 0-204.8-91.692-204.8-204.8s91.692-204.8 204.8-204.8c113.108 0 204.8 91.692 204.8 204.8v0c0 113.108-91.692 204.8-204.8 204.8v0zM665.6 340.992c9.008-20.131 14.254-43.629 14.254-68.352s-5.246-48.221-14.687-69.44l0.432 1.088h-76.8c3.71 20.55 5.832 44.203 5.832 68.352s-2.122 47.802-6.189 70.783l0.357-2.431zM460.8 272.896c-0.005 0.748-0.008 1.634-0.008 2.52 0 23.15 1.865 45.864 5.452 68.001l-0.324-2.425h91.648c3.397-20.546 5.338-44.222 5.338-68.352s-1.941-47.806-5.675-70.882l0.338 2.53h-93.696c-2.137 15.95-3.357 34.389-3.357 53.113 0 5.449 0.103 10.874 0.308 16.273l-0.023-0.778zM648.704 375.296h-67.584c-6.591 24.36-17.521 45.585-32.021 63.849l0.277-0.361c39.75-9.753 73.173-32.353 96.459-63.063l0.309-0.425zM512 426.496c15.36 0 28.672-19.968 38.4-51.2h-78.848c9.216 31.232 23.040 51.2 40.448 51.2zM472.064 438.784c-14.223-17.903-25.153-39.128-31.459-62.261l-0.285-1.227h-67.072c23.475 31.046 56.706 53.624 95.077 63.238l1.179 0.25zM353.28 340.992h76.8c-3.71-20.55-5.832-44.203-5.832-68.352s2.122-47.802 6.189-70.783l-0.357 2.431h-76.8c-9.008 20.131-14.254 43.629-14.254 68.352s5.246 48.221 14.687 69.44l-0.432-1.088zM373.248 170.496h65.024c6.591-24.36 17.521-45.585 32.021-63.849l-0.277 0.361c-39.75 9.753-73.173 32.353-96.459 63.063l-0.309 0.425zM509.952 119.296c-15.36 0-28.672 19.968-38.4 51.2h76.288c-9.216-31.744-23.040-51.2-35.84-51.2zM549.888 107.008c14.223 17.903 25.153 39.128 31.459 62.261l0.285 1.227h65.024c-23.715-31.224-57.33-53.847-96.111-63.249l-1.169-0.239z" />
<glyph unicode="&#xe610;" glyph-name="insertparagraphbeforetable" d="M378.368-49.152v256h226.304v-256h51.2v61.44h153.6v-61.44h51.2v61.44h76.8v51.2h-76.8v143.872h76.8v307.2h-614.4v-563.2zM657.408 462.848h246.784v-204.8h-246.784zM657.408 206.848h153.6v-142.336h-153.6zM378.368 462.848h226.304v-204.8h-226.304zM204.8 762.368h-132.608v59.904h337.408v-59.904h-133.12v-392.192h-71.68z" />
<glyph unicode="&#xe611;" glyph-name="lineheight" d="M395.674 162.816h-324.403l162.202-216.269 162.202 216.269zM506.539 163.362h436.907v-54.613h-436.907v54.613zM503.808 327.202h436.907v-54.613h-436.907v54.613zM503.808 495.411h436.907v-54.613h-436.907v54.613zM501.623 659.251h436.907v-54.613h-436.907v54.613zM73.455 597.538h324.403l-162.202 216.269-162.202-216.269z" />
<glyph unicode="&#xe612;" glyph-name="rowspacingbottom" d="M675.294 162.816h-324.403l162.202-216.269 162.202 216.269zM83.285 323.925h593.647v-54.613h-593.647v54.613zM80.555 487.765h760.218v-54.613h-760.218v54.613zM80.555 655.974h436.907v-54.613h-436.907v54.613zM78.37 819.814h871.629v-54.613h-871.629v54.613z" />
<glyph unicode="&#xe613;" glyph-name="rowspacingtop" d="M349.252 605.73h324.403l-162.202 216.269-162.202-216.269zM941.261 445.167h-593.647v54.613h593.647v-54.613zM943.991 281.327h-760.218v54.613h760.218v-54.613zM943.445 112.572h-436.907v54.613h436.907v-54.613zM946.176-51.268h-871.629v54.613h871.629v-54.613z" />
<glyph unicode="&#xe614;" glyph-name="splittocols" d="M51.2 793.6v-819.2h921.6v819.2zM256 25.6h-153.6v204.8h153.6zM256 281.6h-153.6v204.8h153.6zM256 537.6h-153.6v204.8h153.6zM307.2 25.6v716.8h102.4v-716.8zM460.8 25.6v716.8h102.4v-716.8zM716.8 25.6h-102.4v716.8h102.4zM921.6 25.6h-153.6v204.8h153.6zM921.6 281.6h-153.6v204.8h153.6zM921.6 537.6h-153.6v204.8h153.6z" />
<glyph unicode="&#xe615;" glyph-name="fullscreen" d="M650.085-57.869l113.228 113.228-173.986 173.986 77.328 77.328 173.986-173.986 113.228 113.228v-303.784h-303.784zM666.655 461.327l-77.328 77.328 173.986 173.986-113.228 113.228h303.784v-303.784l-113.228 113.228-173.986-173.986zM434.673 538.655l-77.328-77.328-173.986 173.986-113.228-113.228v303.784h303.784l-113.228-113.228 173.986-173.986zM357.345 306.673l77.328-77.328-173.986-173.986 113.228-113.228h-303.784v303.784l113.228-113.228 173.986 173.986z" />
<glyph unicode="&#xe616;" glyph-name="backcolor" d="M885.682 242.004s-98.805-178.563-98.805-231.537c-0.189-2.256-0.297-4.882-0.297-7.533 0-0.046 0-0.092 0-0.137v0.007c0-54.568 44.237-98.805 98.805-98.805s98.805 44.237 98.805 98.805c0 2.697-0.108 5.369-0.32 8.011 0.618 55.007-98.187 231.188-98.187 231.188zM419.037 769.361l-22.618-24.404-114.28 119.042-91.067-94.043 114.28-119.042-273.202-280.344 386.887-399.386 386.887 399.386zM161.906 370.57l258.322 266.060 257.726-266.060z" />
<glyph unicode="&#xe617;" glyph-name="autotypeset" d="M703.786 512.75l156.964 156.964-57.321 57.321-156.964-156.964zM943.25 669.714q0-14.464-9.643-24.107l-688.929-688.929q-9.643-9.643-24.107-9.643t-24.107 9.643l-106.071 106.071q-9.643 9.643-9.643 24.107t9.643 24.107l688.929 688.929q9.643 9.643 24.107 9.643t24.107-9.643l106.071-106.071q9.643-9.643 9.643-24.107zM219.5 771.5l52.5-16.071-52.5-16.071-16.071-52.5-16.071 52.5-52.5 16.071 52.5 16.071 16.071 52.5zM407 684.714l105-32.143-105-32.143-32.143-105-32.143 105-105 32.143 105 32.143 32.143 105zM905.214 428.643l52.5-16.071-52.5-16.071-16.071-52.5-16.071 52.5-52.5 16.071 52.5 16.071 16.071 52.5zM562.357 771.5l52.5-16.071-52.5-16.071-16.071-52.5-16.071 52.5-52.5 16.071 52.5 16.071 16.071 52.5z" />
<glyph unicode="&#xe618;" glyph-name="icon-test1" horiz-adv-x="1076" d="M538.242 33.473l-199.149-102.266c-102.266-53.824-166.855-5.382-150.708 107.648l37.677 220.679-161.473 156.090c-80.736 80.736-53.824 156.090 59.207 172.237l220.679 32.295 96.884 199.149c48.442 102.266 134.56 102.266 183.002 0l96.884-199.149 220.679-32.295c113.031-16.147 139.943-96.884 59.207-172.237l-161.473-156.090 37.677-220.679c21.53-113.031-48.442-161.473-150.708-107.648l-188.385 102.266zM538.242 33.473l-199.149-102.266c-102.266-53.824-166.855-5.382-150.708 107.648l37.677 220.679-161.473 156.090c-80.736 80.736-53.824 156.090 59.207 172.237l220.679 32.295 96.884 199.149c48.442 102.266 134.56 102.266 183.002 0l96.884-199.149 220.679-32.295c113.031-16.147 139.943-96.884 59.207-172.237l-161.473-156.090 37.677-220.679c21.53-113.031-48.442-161.473-150.708-107.648l-188.385 102.266z" />
<glyph unicode="&#xe619;" glyph-name="italic" d="M896 832v-64h-128l-320-768h128v-64h-448v64h128l320 768h-128v64z" />
<glyph unicode="&#xe61a;" glyph-name="deletetable" d="M568.25 834v-393.75h393.75v393.75zM944 537.562l-79.312-79.313-99.563 99.563-99.563-99.563-79.313 79.313 99.563 99.563-99.563 99.562 79.313 79.313 99.563-99.563 99.562 99.563 79.875-79.875-100.125-99zM905.75 271.5h-225v168.75h-56.25v-168.75h-225v225h168.75v56.25h-450v225h450v56.25h-506.25v-900h900v506.25h-56.25zM343.25-9.75h-225v225h225zM343.25 271.5h-225v225h225zM624.5-9.75h-225v225h225zM905.75-9.75h-225v225h225z" />
<glyph unicode="&#xe61b;" glyph-name="deleterow" d="M332.563 834h-270.563v-225h506.25v225zM287 665.25h-168.75v112.5h168.75zM512 665.25h-168.75v112.5h168.75zM332.563 327.75h-270.563v-393.75h506.25v393.75zM287-9.75h-168.75v112.5h168.75zM287 159h-168.75v112.5h168.75zM512-9.75h-168.75v112.5h168.75zM512 159h-168.75v112.5h168.75zM692 517.312h-60.188l60.188-61.875v61.875zM519.875 530.812h112.5l-30.375 31.5h-315v-192.938h309.375l28.125 31.5h-104.625zM455.75 440.25h-115.875v56.25h115.875zM962 580.312l-81.563 84.375-107.438-111.937-108 112.5-81-84.375 17.438-18.563h120.938v-192.938h-126l-12.375-13.5 81-84.375 108 112.5 107.438-111.938 81.563 84.938-107.438 111.375 107.438 111.938zM692 400.875v67.5l-65.25-67.5h65.25z" />
<glyph unicode="&#xe61c;" glyph-name="deletecol" d="M962 563.437v270.563h-225v-506.25h225zM793.25 609v168.75h112.5v-168.75zM793.25 384v168.75h112.5v-168.75zM455.75 563.437v270.563h-393.75v-506.25h393.75zM118.25 609v168.75h112.5v-168.75zM287 609v168.75h112.5v-168.75zM118.25 384v168.75h112.5v-168.75zM287 384v168.75h112.5v-168.75zM624.5 215.25v60.188l-61.313-60.188h61.313zM624.5 384v-119.813l56.25 30.375v314.438h-168.75v-309.375l56.25-28.125v112.5zM568.25 440.25v112.5h56.25v-112.5zM707.75-66l84.938 81.563-111.937 107.438 112.5 108-84.375 81-28.125-17.437v-135.563h-168.75v140.625l-28.125 12.375-84.375-81 112.5-108-111.938-107.438 84.375-81.563 111.937 107.438 111.375-107.438zM512 215.25h67.5l-67.5 65.25v-65.25z" />
<glyph unicode="&#xe61d;" glyph-name="fontborder" d="M406.25 327.75l91.688 301.5 92.25-301.5h-190.688M568.25 721.5h-127.687l-209.813-675h88.875l52.313 168.75h252.563l56.25-168.75h112.5l-212.063 675M62 834v-900h900v900zM905.75-9.75h-787.5v787.5h787.5z" />
<glyph unicode="&#xe61e;" glyph-name="formatmatch" d="M62-66l126.563 336.938 190.688-335.25h582.75v504.562h-900v-506.25zM624.5 665.25v168.75h-225v-168.75h-337.5v-112.5h900v112.5h-337.5z" />
<glyph unicode="&#xe61f;" glyph-name="imagecenter" d="M62 834h900v-56.25h-900zM174.5 665.25h675v-393.75h-675v393.75zM62 159h900v-56.25h-900zM62-9.75h900v-56.25h-900z" />
<glyph unicode="&#xe620;" glyph-name="imageleft" d="M50.688 794.624h921.6v-51.2h-921.6v51.2zM50.688 641.024h409.6v-512h-409.6v512zM562.688 180.224h409.6v-51.2h-409.6v51.2zM52.736 26.624h921.6v-51.2h-921.6v51.2zM562.688 333.824h409.6v-51.2h-409.6v51.2zM562.688 487.424h409.6v-51.2h-409.6v51.2zM562.688 641.024h409.6v-51.2h-409.6v51.2z" />
<glyph unicode="&#xe621;" glyph-name="horizontal" d="M62 440.25h900v-112.5h-900z" />
<glyph unicode="&#xe622;" glyph-name="imageright" d="M62 834h900v-56.25h-900zM512 665.25h450v-562.5h-450v562.5zM62 159h393.75v-56.25h-393.75zM62-9.75h900v-56.25h-900zM62 327.75h393.75v-56.25h-393.75zM62 496.5h393.75v-56.25h-393.75zM62 665.25h393.75v-56.25h-393.75z" />
<glyph unicode="&#xe623;" glyph-name="imagenone" d="M52.736 788.992h921.6v-51.2h-921.6v51.2zM52.736 635.392h409.6v-512h-409.6v512zM564.736 174.592h409.6v-51.2h-409.6v51.2zM54.784 20.992h921.6v-51.2h-921.6v51.2zM564.736 328.192h409.6v-51.2h-409.6v51.2z" />
<glyph unicode="&#xe624;" glyph-name="charts" d="M622.994 824.85h-175.469v-701.871h175.469v701.871zM330.553 473.917h-175.469v-350.932h175.469v350.932zM915.439 590.891h-175.469v-467.91h175.469v467.91zM38.109 64.489v-116.969h935.837v116.969h-935.837z" />
<glyph unicode="&#xe625;" glyph-name="redo" d="M576.239 626.893v230.673l356.762-356.762-356.762-356.693v235.861c-414.993 9.762-397.107-282.214-291.567-473.634-260.71 281.873-205.346 733.525 291.567 720.555z" />
<glyph unicode="&#xe626;" glyph-name="insertcol" d="M287 609l-225-225 225-225v450zM962-66v900h-562.5v-900zM737 777.75h168.75v-225h-168.75zM737 496.5h168.75v-225h-168.75zM737 215.25h168.75v-225h-168.75zM455.75 777.75h168.75v-225h-168.75zM455.75 496.5h168.75v-225h-168.75zM455.75 215.25h168.75v-225h-168.75z" />
<glyph unicode="&#xe627;" glyph-name="insertrow" d="M737 609l-225 225-225-225h450zM62-66h900v562.5h-900zM905.75 159v-168.75h-225v168.75zM624.5 159v-168.75h-225v168.75zM343.25 159v-168.75h-225v168.75zM905.75 440.25v-168.75h-225v168.75zM624.5 440.25v-168.75h-225v168.75zM343.25 440.25v-168.75h-225v168.75z" />
<glyph unicode="&#xe628;" glyph-name="undo" d="M467.356 626.893v230.673l-362.155-356.762 362.155-356.693v235.861c421.274 9.762 403.251-282.214 295.936-473.634 264.875 281.873 208.555 733.525-295.936 720.555z" />
<glyph unicode="&#xe629;" glyph-name="mergedown" d="M62 834v-900h900v900zM343.25-9.75h-225v225h225zM343.25 271.5h-225v225h225zM343.25 552.75h-225v225h225zM512 46.5l-112.5 168.75h56.25v281.25h112.5v-281.25h56.25zM624.5 552.75h-225v225h225zM905.75-9.75h-225v225h225zM905.75 271.5h-225v225h225zM905.75 552.75h-225v225h225z" />
<glyph unicode="&#xe62a;" glyph-name="mergeright" d="M62 834v-900h900v900zM399.5 777.75h225v-225h-225zM399.5 440.25h281.25v56.25l168.75-112.5-168.75-112.5v56.25h-281.25zM343.25-9.75h-225v225h225zM343.25 271.5h-225v225h225zM343.25 552.75h-225v225h225zM624.5-9.75h-225v225h225zM905.75-9.75h-225v225h225zM905.75 552.75h-225v225h225z" />
<glyph unicode="&#xe62b;" glyph-name="pasteplain" d="M624.5 609v112.5h-56.25v56.25c0 31.066-25.184 56.25-56.25 56.25h-168.75c-31.066 0-56.25-25.184-56.25-56.25v-56.25h-56.25v-112.5zM343.25 777.75h168.75v-56.25h-168.75zM793.25 496.5v196.875c-0.619 15.666-13.467 28.131-29.229 28.131-0.206 0-0.41-0.002-0.614-0.006l-82.657 0.001v-56.25h56.25v-56.25h-56.25v-56.25h-506.25v168.75h-82.687c-0.173 0.004-0.377 0.006-0.583 0.006h-0.001c-15.761 0-28.61-12.466-29.227-28.075l-0.002-646.931h337.5v-112.5h562.5v562.5zM455.75-9.75v450h450v-450zM568.25 327.75h281.25v-56.25h-281.25zM680.75 271.5h56.25v-225h-56.25zM680.75 665.25h56.25v-112.5h-56.25z" />
<glyph unicode="&#xe62c;" glyph-name="pagebreak" d="M397.405-9.75h450v-56.25h-450zM59.905 552.75v-337.5l225 168.75-225 168.75zM341.155 721.5h506.25v-56.25h-506.25zM397.405 102.75h225v-56.25h-225zM228.655 215.25v-281.25h56.25v225h618.75v-225h56.25v281.25h-731.25zM958.78 834h-55.125v-225h-618.75v225h-56.25v-281.25h731.25v281.25h-1.125z" />
<glyph unicode="&#xe62d;" glyph-name="removeformat" d="M662.188 836.666l-600.188-618.75 150.187-168.75h349.875l399.937 450zM526.063 161.666h-253.125l-42.188 50.063 168.75 199.687 168.75-200.25z" />
<glyph unicode="&#xe62e;" glyph-name="snapscreen" d="M655.125 488.625l-180-136.688-180 205.313v-342h450v136.688l-90 136.688zM970.125 102.75h-112.5v618.75h-618.75v112.5h-56.25v-112.5h-112.5v-56.25h112.5v-618.75h618.75v-112.5h56.25v112.5h112.5zM238.875 102.75v562.5h562.5v-562.5z" />
<glyph unicode="&#xe62f;" glyph-name="scrawl" d="M970.886 647.813c-3.35 3.537-8.080 5.737-13.325 5.737-0.152 0-0.304-0.002-0.454-0.005-16.372-2.911-30.242-11.99-39.369-24.704l-346.933-344.998c-87.476-118.618-152.768-259.308-186.555-411.843l117.2 304.658 12.61 8.025c3.439 0 80.818 51.013 94.002 63.623l349.64 348.494c14.903 12.61 26.366 37.257 13.183 51.013zM752.504 539.482c-0.954-27.424-23.415-49.294-50.984-49.294-28.174 0-51.013 22.839-51.013 51.013 0 28.164 22.822 50.997 50.983 51.013 28.312-0.64 51.018-23.742 51.018-52.147 0-0.206-0.001-0.412-0.004-0.617zM214.287 355.491c-0.512-0.018-1.115-0.028-1.72-0.028-29.124 0-52.733 23.609-52.733 52.733s23.609 52.733 52.733 52.733c29.114 0 52.717-23.594 52.733-52.703 0.002-0.176 0.004-0.382 0.004-0.588 0-28.405-22.705-51.507-50.957-52.146zM288.801 539.482c0.954 27.424 23.415 49.294 50.984 49.294 28.174 0 51.013-22.839 51.013-51.013 0-28.164-22.822-50.997-50.983-51.013-28.312 0.64-51.018 23.742-51.018 52.147 0 0.206 0.001 0.412 0.004 0.617zM470.499 592.214c0.954 27.424 23.415 49.294 50.984 49.294 28.174 0 51.013-22.839 51.013-51.013 0-28.164-22.822-50.997-50.983-51.013-28.312 0.64-51.018 23.742-51.018 52.147 0 0.206 0.001 0.412 0.004 0.617zM867.14 413.955c-27.866-177.708-178.316-312.53-360.883-315.831-39.52 0.119-77.524 7.982-112.276 22.168-31.813 13.378-47.289 30-50.728 40.89s-3.439 12.037-4.585 18.342c-7.016 32.372-20.132 60.882-38.173 85.563 5.103-4.892-19.087 10.736-46.926 10.736 0 0 0 0-0.001 0-0.325 0-0.65-0.002-0.974-0.006h0.049c-3.48 0.43-7.563 0.675-11.704 0.675s-8.223-0.245-12.236-0.722c-11.17-2.855-24.553-4.528-38.324-4.542-24.812 0.004-68.374 6.882-69.521 53.883-7.451 239.016 184.564 369.128 377.726 392.056 6.51 0.403 14.118 0.632 21.781 0.632s15.271-0.229 22.82-0.682c-0.49 0.052 0.16 0.054 0.811 0.054 55.507 0 108.658-10.090 157.719-28.535 6.654-2.994 11.813-5.287 37.033-17.897 40.75-20.234 73.813-50.672 96.658-88.037l0.21 97.208c-35.457 34.986-80.185 60.662-130.166 73.010 35.591-10.533 28.713-7.094 16.676-1.935-51.653 19.268-111.335 30.418-173.621 30.418-2.235 0-4.468-0.014-6.696-0.043-7.2 0.47-16.010 0.736-24.881 0.736s-17.683-0.266-26.423-0.79c-126.61-13.29-239.092-70.237-322.979-155.422-59.133-55.93-108.607-162.478-108.607-280.582 0-7.909 0.222-15.765 0.66-23.565-0.050 0.857-0.051 0.591-0.051 0.325 0-34.915 16.26-66.032 41.619-86.193 23.537-17.418 52.853-27.775 84.588-27.775 1.777 0 3.547 0.032 5.308 0.097 19.405 0.158 38.143 2.705 56.031 7.361l-1.592-0.352 6.636-0.711c12.037 0 17.195-10.317 27.513-51.586 0-6.878 3.439-13.756 5.159-20.635 16.991-42.372 53.078-73.912 97.318-84.275 30.029-12.937 74.636-21.776 121.308-21.776 1.123 0 2.245 0.005 3.366 0.015 0.202-0.003 0.644-0.004 1.085-0.004 57.045 0 111.382 11.59 160.787 32.544 73.194 30.675 135.845 81.333 181.191 145.147 4.799-6.142 48.607 66.964 69.465 149.22-7.315-39.432 9.581 21.66 12.042 86.448l-2.881-18.436z" />
<glyph unicode="&#xe630;" glyph-name="splittocells" d="M62 834v-900h900v900zM343.25-9.75h-225v506.25h225zM624.5-9.75h-225v225h225zM624.5 271.5h-225v225h225zM905.75-9.75h-225v225h225zM905.75 271.5h-225v225h225zM905.75 552.75h-506.25v225h506.25z" />
<glyph unicode="&#xe631;" glyph-name="strikethrough" d="M922.916 298.609c-20.594-25.904-51.998-42.45-87.277-42.758-64.598 0.008-107.348 50.633-111.848 132.195h208.125v46.125h-208.125c6.75 81.563 51.188 132.187 116.437 132.188 30.817-0.371 58.29-14.376 76.716-36.253l25.096 31.191c-25.378 28.702-62.287 46.708-103.403 46.708-0.825 0-1.649-0.007-2.471-0.022-88.189 0.002-155.126-65.248-164.126-173.811h-88.313c23.52 15.363 38.845 41.563 38.845 71.343 0 0.824-0.011 1.646-0.035 2.464 0.003 66.817-52.31 92.692-128.81 92.692h-112.5v-168.75h-97.312l-56.25 168.75h-51.75l-56.25-168.75h-51.188v-46.125h36.562l-56.25-168.75h47.812l36.563 119.812h136.688l35.437-115.875h50.063l-56.25 168.75h83.813v-168.75h119.25c83.813 0 141.75 36.563 141.75 112.5 0.027 0.824 0.042 1.794 0.042 2.767 0 20.116-6.558 38.701-17.655 53.731l46.3-0.248c8.438-110.812 74.25-175.5 163.687-175.5 45.971 0.555 86.688 22.565 112.673 56.464zM430.166 562.984h56.25c56.25 0 88.312-16.313 88.313-61.313s-24.75-62.437-88.875-62.437h-56.25zM200.104 562.984c12.375-43.875 23.625-84.938 37.688-127.687h-76.5c15.188 41.625 27.562 82.125 38.813 126.563zM256.354 376.234h-112.5l3.938 12.938h106.312zM593.854 334.609c0-51.188-37.688-74.812-101.812-74.812h-61.875v128.25h136.125c18.564-9.447 31.060-28.412 31.060-50.295 0-1.304-0.044-2.597-0.132-3.879z" />
<glyph unicode="&#xe632;" glyph-name="splittorows" d="M51.2 793.6v-819.2h921.6v819.2zM256 25.6h-153.6v204.8h153.6zM256 281.6h-153.6v204.8h153.6zM256 537.6h-153.6v204.8h153.6zM716.8 25.6h-409.6v204.8h409.6zM716.8 281.6h-409.6v204.8h409.6zM716.8 537.6h-409.6v204.8h409.6zM921.6 25.6h-153.6v204.8h153.6zM921.6 281.6h-153.6v204.8h153.6zM921.6 537.6h-153.6v204.8h153.6z" />
<glyph unicode="&#xe633;" glyph-name="inserttable" d="M788.775 109.523v-108.792l181.35 181.292-181.35 181.296v-108.787h-217.462v-145.013h217.462zM916.183 82.014h-30.209v-12.038h-8.662l-27-30.262h65.871v42.3zM70.125 39.714h600.525l-2.025 30.411-54.621-0.148h-241.704v151.083l175.95-0.185-0.113 30.393h-175.838v181.296h241.704l0.995-134.811 29.273 0.153v134.658h241.704v-123.525l30.209-27v482.85h-846.059v-725.175zM644.271 613.797h241.704v-151.087h-241.704v151.087zM372.3 613.797h241.704v-151.087h-241.704v151.087zM342.037 69.976h-241.708v151.083h241.704v-151.083zM100.329 613.797h241.704v-151.087h-241.704v151.087zM342.037 432.564v-181.296h-241.708v181.296h241.708z" />
<glyph unicode="&#xe634;" glyph-name="icon-test" d="M47.932 480.582h113.941s20.526 69.546 42.918 70.962c0 0 76.505 5.667 76.505 0s-116.682-471.82-116.682-471.82h160.376l116.312 469.143h191.572s-74.017-223.551-80.547-300.063c0 0-43.851-168.135 97.030-179.471h158.607s45.717 11.336 42.917 97.293l-64.375-2.834-25.191 0.945-34.521 1.89s-17.726 7.557-18.659 36.839c-0.933 29.28 83.968 345.717 83.968 345.717l139.327 2.204 20.526 101.386h-776.875c0-0.002-129.297-21.255-127.148-172.191z" />
<glyph unicode="&#xe635;" glyph-name="map-marker" d="M668.038 540.038q0 64.609-45.714 110.323t-110.324 45.714-110.324-45.714-45.714-110.323 45.714-110.324 110.324-45.714 110.324 45.714 45.714 110.324zM824.076 540.038q0-66.438-20.114-109.105l-221.867-471.772q-9.753-20.114-28.953-31.695t-41.142-11.581-41.142 11.581-28.343 31.695l-222.476 471.772q-20.114 42.667-20.114 109.105 0 129.219 91.428 220.647t220.647 91.428 220.647-91.428 91.428-220.647z" />
<glyph unicode="&#xe636;" glyph-name="google" horiz-adv-x="1027" d="M393.417 440.456c16.755 83.558-18.876 246.431-136.247 284.010s-192.832-129.493-100.616-298.643c36.064-66.154 96.416-77.28 136.247-73.081 0 0 83.861 4.156 100.616 87.714zM250.893 302.607c-4.705-1.069-10.92-2.133-17.219-2.923l-1.051-0.108-5.715-0.563c-5.386-0.528-11.826-0.887-18.326-0.993l-0.204-0.003c-0.6-0.006-1.31-0.010-2.020-0.010-3.462 0-6.905 0.082-10.327 0.244l0.484-0.018c-1.818 0.087-3.68 0.13-5.498 0.26-5.79 0.411-10.722 0.919-15.609 1.567l1.278-0.139c-0.736 0.087-1.472 0.13-2.165 0.26-6.693 0.913-12.118 1.884-17.473 3.043l1.498-0.272-4.2 0.952c-5.576 1.202-9.285 2.129-12.963 3.13l1.922-0.446-4.936 1.385c-5.295 1.476-8.541 2.496-11.762 3.573l2.021-0.586-4.459 1.472c-4.892 1.616-8.305 2.893-11.674 4.257l1.37-0.49-2.641 0.996c-5.592 2.175-9.515 3.88-13.383 5.684l1.478-0.619-2.728 1.299c-4.39 1.96-7.020 3.235-9.627 4.549l1.617-0.739-3.593 1.818c-6.382 3.247-9.4 4.889-12.403 6.555l3.181-1.619-5.152 2.944-2.554 1.472c-2.208 1.299-4.070 2.511-5.845 3.593v-223.312c56.586 29.224 217.986 43.857 217.986 43.857-71.262 73.081-29.31 139.927-29.31 139.927zM897.275 681.778l50.394 50.481c-7.612 15.725-16.685 29.269-27.358 41.369l0.169-0.196-0.216 0.216c-5.445 6.141-11.115 11.742-17.134 16.952l-0.227 0.192-0.13 0.087c-5.736 4.94-12.050 9.699-18.664 14.036l-0.689 0.424c-0.476 0.346-1.039 0.606-1.515 0.909-5.121 3.28-11.22 6.682-17.519 9.737l-1.098 0.48-3.55 1.732c-5.85 2.777-12.997 5.542-20.358 7.819l-1.203 0.32c-0.779 0.26-1.645 0.39-2.424 0.649-7.229 2.165-15.977 4.029-24.937 5.226l-0.91 0.099c-6.999 1.014-15.131 1.625-23.393 1.688h-545.622c-8.529 0-16.798-0.779-24.981-1.948l-5.498-0.823c-9.199-1.519-17.191-3.475-24.943-5.966l1.218 0.338-0.866-0.303c-9.893-3.24-18.254-6.786-26.253-10.934l0.969 0.457c-39.269-20.162-69.516-53.241-85.558-93.519l-0.425-1.209c-0.090-0.096-0.189-0.181-0.297-0.256l-0.006-0.004c-2.166-5.391-4.36-12.176-6.142-19.125l-0.266-1.223c5.195 4.156 10.52 7.966 15.889 11.603l1.385 0.996c5.195 3.464 10.434 6.667 15.673 9.741l1.992 1.212c3.632 2.161 8.723 4.901 13.904 7.486l1.638 0.74 2.295 1.169c5.109 2.511 10.217 4.806 15.326 6.927l2.468 0.996c5.022 2.121 10.044 4.026 15.023 5.845l2.468 0.909c4.936 1.732 9.828 3.334 14.633 4.806l2.381 0.693c2.198 0.781 6.904 2.119 11.649 3.359l2.422 0.538 2.251 0.563c4.546 1.126 9.005 2.165 13.335 3.117l2.121 0.433c4.286 0.866 8.486 1.688 12.469 2.381l1.862 0.303c3.983 0.693 7.793 1.256 11.43 1.775l1.602 0.216 10.217 1.256 1.299 0.13c3.16 0.346 6.148 0.606 8.832 0.823l1.082 0.087c2.598 0.216 5.065 0.346 7.187 0.476l0.649 0.043 5.628 0.13c3.117 0.087 4.892 0.043 4.892 0.043h318.602l-79.661-56.369h-71.262c60.785-52.213 73.384-100.226 77.54-177.506 4.2-77.28-41.909-127.415-111.093-185.862-74.553-63.036-25.111-110.703-25.111-110.703l0.823-0.563 2.208-1.515 0.173-0.087 3.723-2.598h0.043l4.936-3.507 0.26-0.173c7.533-5.368 18.054-13.032 30.349-22.34 17.924-13.594 39.441-30.739 60.612-49.442 4.416-3.896 8.832-7.88 13.161-11.906l0.823-0.779c8.279-7.637 15.969-15.163 23.434-22.907l0.161-0.168 2.771-2.857c4.026-4.243 7.923-8.486 11.646-12.728 4.676-5.368 8.832-10.694 12.599-16.019 1.212-1.688 2.208-3.334 3.334-4.979 2.424-3.637 4.806-7.317 6.84-10.91l2.987-5.542c2.086-3.874 4.496-8.971 6.693-14.18l0.494-1.319c1.429-3.55 2.641-7.057 3.723-10.564l1.342-4.286c0.937-3.112 1.943-7.31 2.758-11.575l0.142-0.894 0.39-1.818c1.367-7.422 2.149-15.963 2.149-24.687 0-0.986-0.010-1.97-0.030-2.952l0.002 0.147-0.087-2.468c-0.199-4.809-0.556-9.225-1.075-13.59l0.079 0.818c-0.462-3.733-0.918-6.639-1.451-9.519l0.152 0.99-0.52-2.771c-0.73-3.619-1.359-6.241-2.057-8.834l0.238 1.041-0.563-2.208c-1.070-3.877-1.899-6.503-2.787-9.101l0.363 1.221-0.303-0.909c-0.909-2.598-1.818-4.979-2.684-7.144l-1.602-3.767-0.866-1.948c-0.797-1.797-1.448-3.119-2.138-4.418l0.19 0.391h222.186c5.801 0 11.56 0.346 17.231 0.866 1.862 0.173 3.68 0.52 5.542 0.736 3.767 0.476 7.533 0.996 11.213 1.688 2.165 0.433 4.243 0.952 6.364 1.429 3.334 0.779 6.667 1.602 9.914 2.554l6.451 2.035c9.553 3.181 17.624 6.651 25.343 10.703l-0.925-0.442c1.948 0.996 3.853 1.948 5.758 2.987 3.074 1.688 6.018 3.55 8.962 5.412 1.602 1.039 3.29 1.992 4.892 3.074 3.81 2.598 7.49 5.368 11.083 8.269l1.905 1.472c4.070 3.377 7.966 6.927 11.733 10.65 1.429 1.385 2.728 2.901 4.070 4.329 2.338 2.468 4.632 4.936 6.84 7.49 1.472 1.732 2.857 3.55 4.243 5.325 1.905 2.468 3.81 4.892 5.585 7.447 5.808 8.171 11.211 17.476 15.74 27.268l0.452 1.090c0.996 2.165 1.992 4.329 2.901 6.581 1.212 2.987 2.295 6.018 3.334 9.048 0.736 2.121 1.559 4.243 2.208 6.408 1.169 3.853 2.121 7.75 3.031 11.689 0.346 1.472 0.779 2.901 1.082 4.373l-387.18 171.185-77.8-77.886c-17.947 15.88-37.655 32.1-57.928 47.619l-2.598 1.909 232.62 233.009c12.488-21.957 23.691-47.464 32.231-74.161l0.802-2.903-68.535-68.621 331.893-146.767v479.18l-80.138-80.397c14.504 38.965 20.392 82.735 12.469 122.652zM828.308 496.825c-62.344-70.526-84.424-219.285-84.424-219.285s-19.223 129.233-72.345 203.916l-0.52 0.736c-3.899 5.486-7.707 10.255-11.754 14.806l0.151-0.173c-77.54 87.714-91.654 281.932 84.424 281.932 5.585 0 10.953-0.216 16.149-0.563 1.688-0.13 3.247-0.39 4.892-0.563 3.42-0.346 6.884-0.649 10.131-1.169 1.732-0.26 3.29-0.649 4.979-0.952 3.031-0.563 6.104-1.082 8.962-1.775 1.602-0.39 3.117-0.909 4.676-1.342 2.771-0.779 5.585-1.515 8.226-2.424 1.472-0.52 2.857-1.126 4.286-1.688 2.554-0.996 5.152-1.948 7.576-3.031 1.299-0.606 2.511-1.256 3.767-1.905 2.424-1.212 4.806-2.381 7.1-3.723l3.16-2.035c2.295-1.429 4.589-2.901 6.711-4.459l2.511-1.992c2.165-1.688 4.329-3.42 6.364-5.239 0.693-0.606 1.299-1.299 1.992-1.948 2.078-1.992 4.070-3.983 5.975-6.061l1.472-1.775c2.139-2.489 4.298-5.239 6.335-8.082l0.245-0.36c1.775-2.511 3.464-5.109 5.022-7.75l0.736-1.299c1.602-2.814 3.074-5.628 4.459-8.572l0.433-0.996c1.385-3.074 2.684-6.191 3.853-9.395l0.216-0.649c0.884-2.321 2.008-5.825 3.014-9.38l0.276-1.141c0.952-3.55 1.775-7.144 2.511-10.78v-0.087c0.736-3.767 1.299-7.533 1.775-11.386 7.1-58.577-15.543-126.636-53.338-169.41zM700.46 630.474c0-25.465 20.643-46.108 46.108-46.108s46.108 20.643 46.108 46.108v0c0 25.465-20.643 46.108-46.108 46.108s-46.108-20.643-46.108-46.108v0zM447.059 29.464c-1.248 1.433-2.336 2.645-3.441 3.841l0.108-0.118c-1.201 1.308-2.415 2.523-3.68 3.684l-0.044 0.040-1.515 1.385-3.68 3.247-2.035 1.732-4.632 3.81-2.035 1.645-7.1 5.585-3.767 2.901-4.2 3.204-8.356 6.278-5.455 4.026h-0.087c-14.185 10.73-36.589 26.772-59.228 42.502l-9.567 6.291-0.606 0.433-1.429 0.996c-194.954 6.278-251.539-68.924-251.539-68.924 0.736-3.983 1.732-7.663 2.728-11.43l0.52-0.996 0.043-0.13c18.268-39.582 49.366-70.651 87.862-88.424l1.108-0.459 152.655 152.742h0.823c18.833-12.945 42.861-29.916 63.859-45.329l-123.259-123.475h224.87c10.477 36.713-21.257 75.029-38.921 94.944z" />
<glyph unicode="&#xe637;" glyph-name="ic_format_list_bulle" d="M123.639 456.818c-40.293 0-72.818-32.525-72.818-72.818s32.525-72.818 72.818-72.818 72.818 32.525 72.818 72.818-32.525 72.818-72.818 72.818zM123.639 748.089c-40.293 0-72.818-32.525-72.818-72.818s32.525-72.818 72.818-72.818 72.818 32.525 72.818 72.818-32.525 72.818-72.818 72.818zM123.639 165.547c-40.535 0-72.818-32.768-72.818-72.818s32.768-72.818 72.818-72.818 72.818 32.768 72.818 72.818-32.283 72.818-72.818 72.818zM269.274 44.184h679.633v97.090h-679.633v-97.090zM269.274 335.455h679.633v97.090h-679.633v-97.090zM269.274 723.816v-97.090h679.633v97.090h-679.633z" />
<glyph unicode="&#xe638;" glyph-name="unlink" d="M884 723.001l-6 6c-84 84-228 84-312 0l-115.5-115.5c-9.75-9.75-20.25-21.75-26.25-28.5-6-6-12-17.25-12-27.75 0-19.5 15.75-34.5 34.5-34.5 12 0 22.5 7.5 30 16.5 0 0 12.75 18 21.75 26.25l115.5 115.5c60 60 156 60 216 0l6-6c24-30 42-66 42-108s-12-78-42-108l-123.001-117.001c-12-12-12-36 0-48s36-12 48 0l123.001 117.001c42 42 66 96 66 156s-24 114-66 156zM630.5 175.5c0 18.75-15.75 34.5-34.5 34.5-14.25 0-43.5-35.25-51.001-42l-123.001-123.001c-60-60-156-60-216 0l-6 6c-24 30-42 66-42 108s27.001 93.001 57.001 123.001l115.5 109.5c12 12 12 36 0 48s-36 12-48 0l-130.5-124.5c-42-42-66-96-66-156s24-114 66-156h6c42-42 102-66 156-66s108 18 156 60l123.001 123.001c11.25 10.5 21.75 22.5 30 35.25 4.5 5.25 7.5 12 7.5 20.25zM248 473.25h-167.25c-12.75 0-24 10.5-24 24v4.5c0 12.75 10.5 24 24 24h167.25c12.75 0 24-10.5 24-24v-4.5c0-12.75-10.5-24-24-24zM271.25 567.001l-123.75 112.5c-9.75 9.001-10.5 24-1.5 33.75l3.001 3.001c9.001 9.75 24 10.5 33.75 1.5l123.75-112.5c9.75-9.001 10.5-24 1.5-33.75l-3.001-3.001c-9.001-9.75-24-10.5-33.75-1.5zM346.25 621.001v168c0 12.75 10.5 24 24 24h4.5c12.75 0 24-10.5 24-24v-167.25c0-12.75-10.5-24-24-24h-4.5c-13.5 0-24 10.5-24 23.25zM646.25 120v-167.25c0-12.75 10.5-24 24-24h4.5c12.75 0 24 10.5 24 24v167.25c0 12.75-10.5 24-24 24h-5.25c-12.75 0-23.25-10.5-23.25-24zM737.75 143.25l112.5-123.75c9.001-9.75 24-10.5 33.75-1.5l3.001 3.001c9.75 9.001 10.5 24 1.5 33.75l-112.5 123.75c-9.001 9.75-24 10.5-33.75 1.5l-3.001-3.001c-9.001-9.001-9.75-24-1.5-33.75zM792.5 221.25h167.25c12.75 0 24 10.5 24 24v3.75c0 12.75-10.5 24-24 24h-167.25c-12.75 0-24-10.5-24-24v-4.5c0-12.75 10.5-23.25 24-23.25z" />
<glyph unicode="&#xe639;" glyph-name="ic_format_list_numbe" d="M86.347 156.444h91.022v-22.756h-45.511v-45.511h45.511v-22.756h-91.022v-45.511h136.533v182.044h-136.533v-45.511zM131.858 566.044h45.511v182.044h-91.022v-45.511h45.511v-136.533zM86.347 429.511h81.92l-81.92-95.573v-40.96h136.533v45.511h-81.92l81.92 95.573v40.96h-136.533v-45.511zM313.902 702.578v-91.022h637.156v91.022h-637.156zM313.902 65.422h637.156v91.022h-637.156v-91.022zM313.902 338.489h637.156v91.022h-637.156v-91.022z" />
<glyph unicode="&#xe63a;" glyph-name="time" d="M512 746.782c49.014 0 96.514-9.58 141.184-28.473 43.189-18.267 81.996-44.438 115.342-77.783s59.516-72.152 77.783-115.342c18.894-44.67 28.473-92.171 28.473-141.184s-9.58-96.514-28.473-141.184c-18.267-43.189-44.438-81.996-77.783-115.342s-72.152-59.515-115.342-77.783c-44.67-18.894-92.171-28.473-141.184-28.473s-96.515 9.58-141.186 28.473c-43.189 18.267-81.996 44.438-115.341 77.783s-59.515 72.152-77.782 115.342c-18.894 44.669-28.473 92.171-28.473 141.184s9.58 96.515 28.473 141.185c18.267 43.189 44.438 81.996 77.782 115.342s72.152 59.515 115.341 77.783c44.67 18.893 92.172 28.472 141.186 28.472M512 833.85c-248.447 0-449.85-201.405-449.85-449.85s201.402-449.85 449.85-449.85c248.445 0 449.85 201.405 449.85 449.85s-201.405 449.85-449.85 449.85zM729.669 427.534h-174.135v203.157c0 16.029-12.993 29.022-29.022 29.022h-29.022c-16.029 0-29.022-12.993-29.022-29.022v-261.203c0-16.029 12.993-29.022 29.022-29.022h232.181c16.029 0 29.022 12.994 29.022 29.022v29.022c-0.001 16.029-12.994 29.023-29.023 29.023z" />
<glyph unicode="&#xe63b;" glyph-name="uniEC" d="M557.568-38.298h348.638c29.559 0 53.623 24.064 53.623 53.623v392.226c0 29.559-24.064 53.623-53.623 53.623h-348.638c-29.559 0-53.623-24.064-53.623-53.623v-392.226c0-29.559 24.064-53.623 53.623-53.623zM121.754-38.298h261.461c29.559 0 53.623 24.064 53.623 53.623v174.319c0 29.559-24.064 53.623-53.623 53.623h-261.461c-29.559 0-53.623-24.064-53.623-53.623v-174.319c0-29.559 24.030-53.623 53.623-53.623zM121.754 310.34h261.461c29.559 0 53.623 24.064 53.623 53.623v392.226c0 29.559-24.064 53.623-53.623 53.623h-261.461c-29.559 0-53.623-24.064-53.623-53.623v-392.226c0-29.559 24.030-53.623 53.623-53.623zM557.568 528.247h348.638c29.559 0 53.623 24.064 53.623 53.623v174.319c0 29.559-24.064 53.623-53.623 53.623h-348.638c-29.559 0-53.623-24.064-53.623-53.623v-174.319c0-29.559 24.064-53.623 53.623-53.623z" />
<glyph unicode="&#xe63c;" glyph-name="indent" d="M238.85 416.147q0-7.003-4.5-11.559l-144.647-144.647q-4.5-4.5-11.559-4.5-6.553 0-11.306 4.753t-4.753 11.306v289.294q0 6.553 4.753 11.306t11.306 4.753q7.003 0 11.559-4.5l144.647-144.647q4.5-4.5 4.5-11.559zM962.056 175.059v-96.441q0-6.553-4.753-11.306t-11.306-4.753h-867.853q-6.553 0-11.306 4.753t-4.753 11.306v96.441q0 6.553 4.753 11.306t11.306 4.753h867.853q6.553 0 11.306-4.753t4.753-11.306zM962.056 367.941v-96.441q0-6.553-4.753-11.306t-11.306-4.753h-546.441q-6.553 0-11.306 4.753t-4.753 11.306v96.441q0 6.553 4.753 11.306t11.306 4.753h546.441q6.553 0 11.306-4.753t4.753-11.306zM962.056 560.794v-96.441q0-6.553-4.753-11.306t-11.306-4.753h-546.441q-6.553 0-11.306 4.753t-4.753 11.306v96.441q0 6.553 4.753 11.306t11.306 4.753h546.441q6.553 0 11.306-4.753t4.753-11.306zM962.056 753.647v-96.441q0-6.553-4.753-11.306t-11.306-4.753h-867.853q-6.553 0-11.306 4.753t-4.753 11.306v96.441q0 6.553 4.753 11.306t11.306 4.753h867.853q6.553 0 11.306-4.753t4.753-11.306z" />
<glyph unicode="&#xe63d;" glyph-name="ok" d="M335.568 200.005l-224.875 224.875-76.258-76.21 301.134-301.087 646.833 646.782-76.21 76.258-570.623-570.618z" />
<glyph unicode="&#xe63e;" glyph-name="dollar" d="M524.267 442.667c-121.067 31.467-160 64-160 114.667 0 58.133 53.867 98.667 144 98.667 94.933 0 130.133-45.333 133.333-112h117.867c-3.733 91.733-59.733 176-171.2 203.2v116.8h-160v-115.2c-103.467-22.4-186.667-89.6-186.667-192.533 0-123.2 101.867-184.533 250.667-220.267 133.333-32 160-78.933 160-128.533 0-36.8-26.133-95.467-144-95.467-109.867 0-153.067 49.067-158.933 112h-117.333c6.4-116.8 93.867-182.4 196.267-204.267v-115.733h160v114.667c104 19.733 186.667 80 186.667 189.333 0 151.467-129.6 203.2-250.667 234.667v0z" />
<glyph unicode="&#xe63f;" glyph-name="pen" d="M973.028 626.427l-206.879 206.879-103.44-103.44 206.879-206.879 103.44 103.44zM300.671-45.93l-257.298-53.020 50.419 259.9 517.198 517.198 206.879-206.879-517.198-517.198z" />
<glyph unicode="&#xe640;" glyph-name="share" d="M834.188 594.937q-25.313-11.25-54.375-11.25-13.125 0-26.25 2.813-13.125 1.875-25.313 6.562-11.25 5.625-22.5 12.188t-20.625 15l-341.25-200.625q0.937-3.75 0.938-7.5 0.937-4.688 1.875-7.5 0-4.688 0.469-9.375t0.469-9.375-0.469-8.438-0.469-8.438q-0.937-3.75-1.406-7.969t-1.406-8.906l338.438-197.812q10.313 9.375 20.625 16.875t23.438 11.25q12.188 6.563 25.781 8.438t27.656 1.875q29.063 0 55.781-11.25t45.469-30q20.625-19.687 31.875-45.937t11.25-57.188q0-29.063-11.25-55.781t-31.875-45.469q-18.75-19.687-45.469-31.406t-55.781-11.719-55.313 11.719-45.938 31.406q-19.687 18.75-30.938 45.469t-11.25 55.781q0 4.688 0.469 8.906t0.469 8.906q0.937 3.75 1.875 8.438 0 4.688 0.938 7.5l-338.438 198.75q-10.313-8.438-20.625-15.937t-23.438-12.188q-12.188-5.625-25.313-8.438-14.063-2.812-28.125-2.813-29.063 0-55.781 11.25t-45.469 31.875q-20.625 18.75-31.875 45.469t-11.25 55.781q0 30.937 11.25 56.719t31.875 46.406q18.75 18.75 45.469 30.469t55.781 11.719q15 0 28.125-2.813 13.125-1.875 25.313-7.5 13.125-4.688 23.438-12.188t20.625-15.938l342.187 199.687q-0.937 2.812-1.875 7.5v8.438q-1.875 2.812-1.875 7.5v8.438q0 29.063 10.781 54.375t30 44.531 44.531 30 54.375 10.781 54.375-10.781 44.531-30 30-44.531 10.781-54.844-10.781-54.844-30-44.531-44.531-29.531z" />
<glyph unicode="&#xe641;" glyph-name="vertical" d="M486.4 896h51.2v-1024h-51.2z" />
<glyph unicode="&#xe642;" glyph-name="directionalityrtl" d="M951.936 71.447l-372.827 310.689 372.827 310.689v-621.378zM80.763 694.689v62.138h434.965v-62.138h-186.414v-621.378h186.414v-62.138h-434.965v62.138h186.414v621.378h-186.414z" />
<glyph unicode="&#xe643;" glyph-name="directionalityltr" d="M81.385 71.447l372.827 310.689-372.827 310.689v-621.378zM952.557 694.689v62.138h-434.965v-62.138h186.414v-621.378h-186.414v-62.138h434.965v62.138h-186.414v621.378h186.414z" />
<glyph unicode="&#xe644;" glyph-name="multi-image" d="M348.304 642.715c0-34.962-28.385-63-63.346-63-34.615 0-63 28.038-63 63s28.385 63.346 63 63.346c34.962 0 63.346-28.385 63.346-63.346zM650.842 208.638h-553.846c-19.038 0-34.615 15.577-34.615 34.615v553.846c0 19.038 15.577 34.615 34.615 34.615h553.846c19.038 0 34.615-15.577 34.615-34.615v-553.846c0-19.038-15.577-34.615-34.615-34.615zM503.381 567.6l111.669-149.123h1.177v344.008h-484.615v-360.346l56.769 70.996c0 0 14.192 19.385 31.5 19.385s30.462-17.688 30.462-17.688l51.923-59.158c0 0 6.577-10.419 20.423-10.419 13.154 0 18.692 10.419 18.692 10.419l98.654 152.273c0 0 7.615 11.769 33.923 11.769 22.846 0 29.423-12.115 29.423-12.115zM284.612 174.023l438.231-75.462c18.692-3.115 36.727 9.658 40.154 28.385l93.808 545.885c3.115 18.692-9.381 36.692-28.385 39.808l-108.346 18.692v-70.269l62.688-10.731-62.688-363.808v-43.269c0-38.077-31.154-69.231-69.231-69.231h-366.231zM935.035 543.715l-62.654 14.885-11.769-68.504 24.888-5.885-94.812-404.342-13.812 3.15c-12.842-12.15-29.458-19.385-48.15-19.385-3.773 0-7.962 0.346-11.769 1.004l-479.423 82.419-10.038-41.573c-4.154-18.658 7.269-37.385 25.962-41.85l539.308-126.346c18.346-4.535 37.038 7.269 41.538 25.615l126.346 539.342c4.5 18.623-6.923 36.969-25.615 41.469z" />
<glyph unicode="&#xe645;" glyph-name="exchange" horiz-adv-x="1194" d="M59.922 483.499h1075.2c28.16 0 41.813 34.219 21.589 53.76l-306.603 293.12c-5.588 5.314-13.164 8.582-21.504 8.582-17.236 0-31.211-13.962-31.232-31.193v-168.535c0 0 0 0 0 0 0-17.202-13.945-31.147-31.147-31.147-0.030 0-0.060 0-0.090 0h-706.214c-0.025 0-0.055 0-0.085 0-17.202 0-31.147-13.945-31.147-31.147 0 0 0 0 0 0v0-62.293c0-17.152 13.909-31.232 31.232-31.232zM1135.122 278.101h-1075.2c-28.16 0-41.899-34.304-21.589-53.76l306.603-293.205c5.588-5.314 13.165-8.582 21.504-8.582 17.206 0 31.163 13.914 31.232 31.104v168.54c0 17.237 13.909 31.147 31.147 31.147h706.389c0.025 0 0.055 0 0.085 0 17.202 0 31.147 13.945 31.147 31.147 0 0.030 0 0.060 0 0.090v-0.005 62.293c-0.097 17.24-14.071 31.184-31.313 31.232h-0.005z" />
<glyph unicode="&#xe646;" glyph-name="check-box" d="M740 606l-318-318-138 156c-24 24-60 24-84 0s-24-60 0-84l174-198c12-12 30-18 42-18 18 0 30 6 42 18l360 360c24 24 24 60 0 84-18 24-60 24-78 0zM872 864h-720c-66 0-120-54-120-120v-720c0-66 54-120 120-120h720c66 0 120 54 120 120v720c0 66-54 120-120 120zM932 24c0-36-24-60-60-60h-720c-36 0-60 24-60 60v720c0 36 24 60 60 60h720c36 0 60-24 60-60v-720z" />
<glyph unicode="&#xe647;" glyph-name="html" d="M102.4 861.867l74.453-844.373 334.080-111.36 336.213 111.36 74.453 844.373h-819.2zM759.893 589.013h-392.107l8.747-105.387h374.613l-29.013-316.587-208.853-57.6v-0.64h-2.347l-210.56 58.24-12.8 161.707h101.76l7.467-81.28 114.133-30.933 114.56 30.933 12.8 132.693h-356.053l-27.307 310.613h514.347l-9.387-101.76z" />
<glyph unicode="&#xe648;" glyph-name="color1" d="M272.26 585.111c0 41.425 33.14 74.565 70.423 74.565s70.423-33.14 70.423-74.565-28.998-70.423-70.423-70.423-70.423 33.14-70.423 70.423zM131.414 440.122c0 41.425 33.14 74.565 70.423 74.565s70.423-33.14 70.423-74.565-33.14-70.423-70.423-70.423-70.423 33.14-70.423 70.423zM462.816 634.821c0 41.425 33.14 74.565 70.423 74.565s70.423-33.14 70.423-74.565-33.14-70.423-70.423-70.423c-37.283 0-70.423 33.14-70.423 70.423zM462.816 224.711c0 53.853 41.425 95.278 95.278 95.278s95.278-41.425 95.278-95.278-41.425-95.278-95.278-95.278-95.278 41.425-95.278 95.278zM508.383 754.954c-236.124 0-426.68-161.558-426.68-364.542s190.556-360.399 426.68-360.399c66.28 0 115.991 8.285 157.416 24.855 28.998 12.428 53.853 28.998 66.28 49.71 28.998 45.568 8.285 111.848-12.428 153.273-45.568 95.278-4.143 136.703 16.57 149.131 12.428 8.285 24.855 12.428 37.283 12.428 20.713 0 53.853-8.285 86.993-57.995 16.57-28.998 37.283-37.283 45.568-37.283 16.57 0 28.998 28.998 28.998 74.565 0 194.699-190.556 356.257-426.68 356.257zM508.383-15.555c-124.276 0-244.409 41.425-331.402 120.133-45.568 37.283-78.708 82.85-103.563 132.561-24.855 45.568-37.283 99.421-37.283 157.416s12.428 107.706 37.283 161.558c24.855 49.71 57.995 91.135 103.563 132.561 86.993 74.565 207.126 115.991 331.402 115.991s244.409-41.425 331.402-120.133c45.568-37.283 78.708-82.85 103.563-132.561s37.283-103.563 37.283-161.558c0-91.135-37.283-120.133-74.565-120.133-28.998 0-62.138 20.713-86.993 57.995-16.57 24.855-33.14 37.283-45.568 37.283-4.143 0-8.285 0-12.428-4.143-24.855-16.57-12.428-62.138 0-82.85 37.283-78.708 41.425-149.131 8.285-202.984-37.283-62.138-124.276-91.135-260.979-91.135z" />
<glyph unicode="&#xe649;" glyph-name="down" d="M49.144 580.194l70.387 70.387 462.922-462.922-70.387-70.387-462.922 462.922zM904.461 650.74l70.387-70.387-462.922-462.922-70.387 70.387 462.922 462.922z" />
<glyph unicode="&#xe64a;" glyph-name="wordimage" d="M930.5 440.25h-499.5c-17.397 0-31.5-14.103-31.5-31.5v-443.25c0-17.397 14.103-31.5 31.5-31.5h500.063c17.397 0 31.5 14.103 31.5 31.5v443.255c0 17.397-14.103 31.5-31.5 31.5-0.198 0-0.396-0.002-0.592-0.005zM645.875 295.688c-0.944-38.1-32.053-68.625-70.292-68.625-38.833 0-70.313 31.48-70.313 70.313 0 38.826 31.468 70.301 70.291 70.313 38.969-0.632 70.316-32.369 70.316-71.429 0-0.201-0.001-0.402-0.003-0.602zM878.75-9.75h-411.188l115.313 180.563 74.813-117 155.813 262.125 92.25-156.938v-143.438c-0.914-14.168-12.629-25.313-26.947-25.313h-0.055zM905.75 834h-787.5c-31.066 0-56.25-25.184-56.25-56.25v-787.5c0-31.066 25.184-56.25 56.25-56.25h225v56.25h-168.75c-31.066 0-56.25 25.184-56.25 56.25v675c0 31.066 25.184 56.25 56.25 56.25h675c31.066 0 56.25-25.184 56.25-56.25v-225h56.25v281.25c0 31.066-25.184 56.25-56.25 56.25zM343.25 346.875l-69.187 318.375h-104.063l133.313-562.5h39.937v234zM816.875 496.5l38.25 168.75h-102.375l-35.438-168.75h99.563zM503 496.5c0 23.625 3.938 35.438 6.188 56.25h2.813c0-20.813 6.75-56.25 6.75-56.25h85.5l-39.375 168.75h-101.813l-37.688-168.75z" />
<glyph unicode="&#xe64b;" glyph-name="slider" d="M954.732 826.732h-862.162c-23.302 0-38.836-15.534-38.836-38.836v-7.767c0-23.302 15.534-38.836 38.836-38.836h862.162c7.767 0 15.534 0 23.302 7.767s7.767 15.534 7.767 23.302v7.767c0 31.069-15.534 46.603-31.069 46.603zM799.387 865.568h-77.672c-23.302 0-38.836-15.534-38.836-38.836v-77.672c0-23.302 15.534-38.836 38.836-38.836h77.672c23.302 0 38.836 15.534 38.836 38.836v77.672c0 23.302-15.534 38.836-38.836 38.836zM954.732 477.207h-862.162c-23.302 0-38.836-15.534-38.836-38.836v-7.767c0-23.302 15.534-38.836 38.836-38.836h862.162c23.302 0 38.836 15.534 38.836 38.836v7.767c-7.767 23.302-23.302 38.836-38.836 38.836zM558.603 516.043h-77.672c-23.302 0-38.836-15.534-38.836-38.836v-77.672c0-23.302 15.534-38.836 38.836-38.836h77.672c23.302 0 38.836 15.534 38.836 38.836v77.672c0 23.302-15.534 38.836-38.836 38.836zM954.732 127.681h-862.162c-7.767 0-15.534 0-23.302-7.767s-7.767-15.534-7.767-23.302v-7.767c0-23.302 15.534-38.836 38.836-38.836h862.162c23.302 0 38.836 15.534 38.836 38.836v7.767c-15.534 15.534-31.069 31.069-46.603 31.069zM333.354 166.518h-77.672c-23.302 0-38.836-15.534-38.836-38.836v-77.672c0-23.302 15.534-38.836 38.836-38.836h77.672c23.302 0 38.836 15.534 38.836 38.836v77.672c0 23.302-15.534 38.836-38.836 38.836z" />
<glyph unicode="&#xe64c;" glyph-name="cancel" d="M967.825 758.85l-80.44 80.976-375.385-377.53-375.385 377.53-80.44-80.976 375.921-377.8-370.559-372.702 79.635-80.173 370.559 372.705 0.269-0.267 0.267 0.267 370.56-372.703 79.635 80.171-370.559 372.705 375.921 377.798z" />
<glyph unicode="&#xe64d;" glyph-name="tuichu" d="M774.968 645.752c30.72-21.845 58.028-46.593 81.918-74.236 23.893-27.65 44.371-57.514 61.437-89.598 17.068-32.084 30.038-66.047 38.912-101.885s13.31-72.188 13.31-109.050c0-63.486-12.115-123.044-36.349-178.682-24.234-55.634-57.001-104.102-98.301-145.398-41.303-41.304-89.77-74.068-145.403-98.302-55.632-24.234-115.196-36.352-178.675-36.352-62.804 0-122.026 12.118-177.659 36.352-55.638 24.234-104.274 56.999-145.914 98.302-41.643 41.298-74.408 89.766-98.301 145.398-23.894 55.638-35.839 115.196-35.839 178.684 0 36.176 4.265 71.675 12.8 106.489s20.649 67.922 36.348 99.326c15.704 31.399 35.159 60.753 58.368 88.056 23.209 27.308 49.148 51.884 77.822 73.728 15.019 10.923 31.229 15.018 48.639 12.289 17.403-2.735 31.569-11.265 42.493-25.599 10.925-14.34 15.019-30.38 12.29-48.128-2.736-17.749-11.265-32.084-25.599-43.009-43.008-31.399-75.947-69.966-98.817-115.705-22.863-45.738-34.297-94.886-34.297-147.447 0-45.054 8.53-87.552 25.599-127.486 17.064-39.934 40.443-74.746 70.135-104.44 29.7-29.7 64.513-53.25 104.447-70.656s82.426-26.108 127.486-26.108c45.051 0 87.545 8.702 127.478 26.108s74.752 40.956 104.445 70.656c29.693 29.694 53.243 64.506 70.65 104.44 17.411 39.934 26.111 82.432 26.111 127.486 0 53.242-12.285 103.589-36.859 151.032-24.576 47.443-59.050 86.521-103.42 117.239-15.017 10.24-24.064 24.235-27.133 41.984-3.074 17.749 0.509 34.133 10.747 49.153 10.242 14.334 24.236 23.039 41.984 26.108s34.126-0.509 49.147-10.749v0zM511.818 267.91c-17.752 0-32.94 6.315-45.569 18.942-12.629 12.63-18.944 27.82-18.944 45.57v389.102c0 17.749 6.315 33.109 18.944 46.078 12.629 12.971 27.817 19.454 45.569 19.454 18.428 0 33.957-6.484 46.587-19.454s18.944-28.329 18.944-46.078v-389.103c0-17.749-6.315-32.939-18.944-45.57-12.63-12.626-28.159-18.941-46.587-18.941v0z" />
<glyph unicode="&#xe64e;" glyph-name="radio-active" d="M512.036 864c-0.009 0-0.019 0-0.029 0-265.093 0-479.993-214.9-479.993-479.993s214.9-479.993 479.993-479.993c265.093 0 479.993 214.9 479.993 479.993v0c0 0.009 0 0.019 0 0.029 0 265.077-214.887 479.964-479.964 479.964v0zM512.036-3.631c-0.009 0-0.019 0-0.029 0-214.103 0-387.668 173.565-387.668 387.668s173.565 387.668 387.668 387.668c214.103 0 387.668-173.565 387.668-387.668 0-0.010 0-0.020 0-0.031v0.001c-0.017-214.080-173.558-387.622-387.637-387.638h-0.001zM324.49 384.007c0-0.001 0-0.002 0-0.002 0-103.579 83.967-187.546 187.546-187.546s187.546 83.967 187.546 187.546c0 0.001 0 0.002 0 0.002v0c0 0.001 0 0.001 0 0.002 0 103.579-83.967 187.546-187.546 187.546s-187.546-83.967-187.546-187.546c0-0.001 0-0.001 0-0.002v0z" />
<glyph unicode="&#xe64f;" glyph-name="left" d="M245.26 384.076l70.387 70.387 462.922-462.922-70.387-70.387-462.922 462.922zM315.809 313.533l-70.387 70.387 462.922 462.922 70.387-70.387-462.922-462.922z" />
<glyph unicode="&#xe650;" glyph-name="print" d="M280.981 657.15v176.85h451.913v-176.85h-451.913zM62 606.638h898.313v-446.344h-178.313v223.144h-541.688l-1.463-223.144h-176.85v446.344zM280.981-58.688v393.019h451.913v-393.019h-451.913zM376.381 205.181h269.494v46.744h-269.438v-46.688zM376.381 115.8h269.494v46.744h-269.438v-46.688zM376.381 26.475h269.494v46.744h-269.438v-46.744z" />
<glyph unicode="&#xe651;" glyph-name="wran" d="M512 818.965c-251.658 0-455.677-204.019-455.677-455.677 0-251.679 204.019-455.677 455.677-455.677s455.677 203.999 455.677 455.677c0 251.679-204.019 455.677-455.677 455.677zM512 113.97c-28.873 0-52.279 23.405-52.279 52.279s23.405 52.279 52.279 52.279c28.894 0 52.279-23.426 52.279-52.279 0-28.873-23.385-52.279-52.279-52.279zM540.811 283.668c-4.536-14.23-15.949-23.302-28.811-23.302-12.883 0-24.917 11.019-28.811 23.302-3.873 12.324-33.327 204.309-33.327 285.855 0 20.713 20.713 63.422 61.496 63.422s62.78-42.067 62.78-63.422c0-82.188-28.811-271.604-33.327-285.855z" />
<glyph unicode="&#xe652;" glyph-name="trash" d="M828.646 613.895h-1.404c-19.518 0-35.339-15.821-35.339-35.335v-493.897c0-0.005 0-0.010 0-0.015 0-3.861 0.621-7.578 1.768-11.055l-0.071 0.249 0.117-51.672c0-30.68-13.319-47.097-45.696-47.097l-469.683 1.203c-32.351 0-46.588 14.011-46.588 44.687v542.661h-0.274v14.936c0 19.515-15.821 35.335-35.335 35.335h-1.404c-19.515 0-35.335-15.821-35.335-35.335v-14.939h-0.424v-542.885c0-61.52 52.619-111.539 117.296-111.539h468.97c64.673 0 117.317 50.022 117.317 111.539v53.994c0.904 2.973 1.425 6.39 1.426 9.928v493.902c-0.004 19.515-15.824 35.335-35.339 35.335zM388.476 83.781v370.33c0 19.024-15.422 34.454-34.45 34.454-19.024 0-34.447-15.422-34.447-34.454v-370.326c0.2-18.874 15.546-34.097 34.448-34.097s34.247 15.221 34.448 34.074v0.019zM543.071 83.781v370.33c0 19.024-15.422 34.454-34.45 34.454-19.024 0-34.447-15.422-34.447-34.454v-370.326c0.2-18.874 15.546-34.097 34.448-34.097s34.247 15.221 34.448 34.074v0.019zM697.669 83.781v370.33c0 19.024-15.422 34.454-34.45 34.454-19.024 0-34.447-15.422-34.447-34.454v-370.326c0.2-18.874 15.546-34.097 34.448-34.097s34.247 15.221 34.448 34.074v0.019zM922.021 721.763h-198.049v67.741c1.196 56.28-47.536 69.848-96.176 69.848h-234.043c-60.405 0-94.859-21.617-94.859-67.909l-0.249-69.68h-198.144c-19.515 0-35.335-15.821-35.335-35.335v-1.763c0-19.515 15.821-35.335 35.335-35.335h821.515c19.522 0 35.343 15.821 35.343 35.335v1.763c0 19.515-15.821 35.335-35.343 35.335h0.004zM364.182 768.486c0 15.484 11.483 28.99 27.794 28.99l234.533-1.207c16.282 0 30.632-11.129 30.632-26.617l0.19-47.89h-293.149v46.724zM364.182 768.486" />
<glyph unicode="&#xe653;" glyph-name="insert-image" horiz-adv-x="1252" d="M1100.558 34.052v-100.019h-66.679v100.019h-101.052v66.679h101.052v101.052h66.679v-101.052h98.985v-66.679h-98.985zM731.389 585.187c0.598 46.263 37.669 83.673 83.742 84.814l0.107 0.002c0.948 0.039 2.061 0.061 3.178 0.061 46.124 0 83.515-37.391 83.515-83.515 0-0.478-0.004-0.956-0.012-1.433l0.001 0.072c0.199-2.094 0.313-4.528 0.313-6.988 0-43.233-35.048-78.281-78.281-78.281-3.070 0-6.099 0.177-9.077 0.521l0.363-0.034c-1.009-0.045-2.192-0.071-3.381-0.071-44.504 0-80.582 36.078-80.582 80.582 0 1.503 0.041 2.996 0.122 4.478l-0.009-0.206zM1033.179 768.188h1.9l11.702 65.312c28.1-0.633 51.014-22.014 54.054-49.392l0.023-0.251v-515.462l-67.679-0.633s0.3 366.968 0 500.426zM166.351 768.188l1.1-609.113 34.74 30.339 203.671 301.056 185.701-247.346 147.227 148.194 195.47-203.904s-143.093-73.68-97.618-153.362h-686.961c-27.41 0.514-49.496 22.599-50.009 49.961l-0.001 0.049v699.696l1.867-0.433c6.765 24.012 24.732 42.749 47.754 50.458l0.521 0.151h883.264v-65.746h-867.294zM1046.981 834.033v-0.433l-3.601 0.433h3.667z" />
<glyph unicode="&#xe654;" glyph-name="weibiaoti46" d="M947-32.25h-870c-24.75 0-45 20.25-45 44.25v743.25c0 24.75 20.25 44.25 45 44.25h870c24.75 0 45-20.25 45-44.25v-743.25c0-24.75-20.25-44.25-45-44.25zM122 755.25c-24.75 0-45-20.25-45-44.25 0-24.75 20.25-44.25 45-44.25s45 20.25 45 44.25c0 24-20.25 44.25-45 44.25zM257 755.25c-24.75 0-45-20.25-45-44.25 0-24.75 20.25-44.25 45-44.25s45 20.25 45 44.25c0 24-20.25 44.25-45 44.25zM392 755.25c-24.75 0-45-20.25-45-44.25 0-24.75 20.25-44.25 45-44.25s45 20.25 45 44.25c0 24-20.25 44.25-45 44.25zM947 620.25h-870v-608.25h870v608.25zM365.75 504c4.5 4.5 11.25 4.5 15.75 0s4.5-11.25 0-15.75l-157.5-156.75 157.5-156.75c4.5-4.5 4.5-11.25 0-15.75s-11.25-4.5-15.75 0l-165 165c-2.25 1.5-3.75 4.5-3.75 7.5s0.75 6 3 8.25l165.75 164.25zM565.25 456.75c3 5.25 9.75 7.5 15 4.5s7.5-9 5.25-15l-127.5-240.75c-3-5.25-9.75-7.5-15-4.5s-7.5 9-5.25 15l127.5 240.75zM642.5 504c4.5 4.5 11.25 4.5 15.75 0l165-165c2.25-2.25 3-5.25 3-8.25s-0.75-6-3-8.25l-165-165c-4.5-4.5-11.25-4.5-15.75 0s-4.5 11.25 0 15.75l157.5 157.5-157.5 157.5c-4.5 4.5-4.5 11.25 0 15.75z" />
<glyph unicode="&#xe655;" glyph-name="right" d="M708.346 454.463l-0.151-0.151-392.541 392.54-70.386-70.387 392.54-392.54-392.388-392.388 70.387-70.387 462.927 462.927z" />
<glyph unicode="&#xe656;" glyph-name="replace" d="M785.522 382.876c-9.742 11.99-23.231 20.233-38.218 23.231 11.241 8.243 20.983 17.985 28.476 29.226 8.993 16.486 13.489 35.97 11.241 53.955 0.749 22.481-9.742 43.464-26.978 56.953-21.732 13.489-47.211 20.233-72.689 18.734h-101.915v-343.214h104.163c29.226-0.749 58.451 8.993 80.933 27.727 21.732 17.985 34.471 44.213 34.471 72.689 1.499 22.481-5.995 43.464-19.484 60.699zM676.113 528.255c43.464 0 65.196-16.486 65.196-48.709 0.749-16.486-6.744-32.973-18.734-43.464-14.988-11.241-32.973-16.486-50.958-15.737h-39.717v108.659h44.213zM737.562 277.963c-14.988-11.99-34.471-17.985-53.955-17.236h-51.707v122.148h45.712c53.955 0 80.933-20.233 80.933-59.95 0-17.236-7.494-33.722-20.983-44.963zM287.187 582.21h143.88l21.732-53.955h56.953l-76.436 183.597-15.737 38.218-2.998 9.742-15.737 38.218-14.238 35.97h-53.206l-11.99-32.973-14.238-38.218-85.429-234.555h47.211l20.233 53.955zM352.383 766.556v2.248l5.246 14.238 5.246-13.489v-2.998l5.246-14.988 14.238-38.968 32.223-86.928h-116.153l53.955 140.883zM569.702 324.425l-85.429 81.682v-65.945h0.749c-4.496-0.749-8.993-0.749-13.489-0.749-83.181 0-150.624 67.444-150.624 150.624 0 7.494 0.749 14.988 1.499 22.481h-41.216c-0.749-7.494-1.499-14.988-1.499-22.481 0-105.662 85.429-191.091 191.091-191.091 4.496 0 8.993 0 13.489 0.749v-56.203l85.429 80.933zM282.691-65.251h18.734v14.238h143.88v-13.489h18.734v114.654h-180.6v-115.404zM300.676 32.918h143.88v-24.729h-143.88v24.729zM300.676-8.298h143.88v-25.479h-143.88v25.479zM315.664 82.376c12.739-8.243 26.228-17.236 38.218-27.727l11.241 14.238c-14.238 10.491-28.476 19.484-43.464 27.727 0.749 2.248 1.499 4.496 1.499 6.744h45.712v16.486h-42.714c0.749 6.744 1.499 14.988 1.499 23.231h39.717v16.486h-39.717v25.479h-17.236v-25.479h-53.955v-16.486h53.955c0-8.243-0.749-16.486-2.248-23.231h-58.451v-16.486h54.704c-5.246-18.734-24.729-35.221-58.451-49.459 5.246-6.744 8.993-11.99 12.739-16.486 26.978 13.489 45.712 28.476 56.953 44.963zM439.311 103.359h53.955v16.486h-56.953c0.749 6.744 1.499 14.238 1.499 23.231h50.208v16.486h-50.208v25.479h-17.236v-25.479h-44.213v-16.486h44.213c0-8.993-0.749-16.486-2.248-23.231h-43.464v-16.486h38.218c-6.744-12.739-21.732-23.98-45.712-33.722 3.747-5.246 7.494-9.742 10.491-14.988 25.479 11.241 41.965 23.98 50.208 38.218 11.99-23.231 31.474-39.717 58.451-50.208 3.747 5.246 7.494 11.241 12.739 16.486-28.476 7.494-47.96 22.481-59.95 44.213zM738.311 107.106h-45.712c13.489 15.737 23.231 27.727 29.975 35.221v17.236h-76.436c4.496 7.494 8.993 15.737 12.739 23.231l-20.233 3.747c-13.489-27.727-30.724-53.206-53.206-76.436 5.995-4.496 10.491-8.243 14.988-11.241v-68.943h-21.732v-17.236h75.687c-7.494-25.479-35.221-45.712-83.93-59.95 5.995-5.995 10.491-12.739 14.238-18.734 47.211 17.236 74.938 38.968 84.679 65.196 14.238-30.724 38.968-51.707 74.188-62.948 3.747 5.995 8.993 12.739 14.988 20.233-38.218 7.494-63.697 26.228-77.186 55.454h78.684v17.236h-20.233v77.935zM657.379 30.669h-39.717v59.201h41.965c0-30.724-0.749-50.958-2.248-59.201zM607.92 107.106c9.742 11.241 18.734 22.481 26.978 35.221h64.446c-7.494-9.742-17.236-20.983-28.476-35.221h-62.948zM720.326 30.669h-44.213c0.749 17.985 1.499 37.469 1.499 59.201h42.714v-59.201zM583.94 77.131c-8.993-3.747-17.985-6.744-26.228-9.742v51.707h28.476v17.985h-28.476v47.211h-19.484v-47.211h-29.975v-17.236h29.975v-58.451c-11.241-3.747-21.732-6.744-32.223-9.742l2.998-20.983c11.241 3.747 20.983 7.494 29.226 10.491v-71.94c0-6.744-2.998-10.491-8.993-10.491s-14.238 0.749-23.231 1.499c1.499-6.744 2.248-14.238 2.998-20.983h25.479c15.737 0.749 23.231 9.742 23.231 26.978v80.933c16.486 5.995 25.479 9.742 26.978 9.742-0.749 5.246-0.749 11.99-0.749 20.233z" />
<glyph unicode="&#xe657;" glyph-name="uniEBD" d="M919.791 555.657c-22.905 53.844-54.078 99.865-92.448 138.768l0.049-0.050-1.638 2.048-1.263 1.263c-79.875 80.19-190.389 129.81-312.492 129.81-0.324 0-0.647 0-0.971-0.001h0.051c-0.294 0.001-0.642 0.001-0.991 0.001-122.048 0-232.512-49.594-312.34-129.728l-0.014-0.014c-80.087-79.816-129.64-190.226-129.64-312.209 0-0.351 0-0.702 0.001-1.053v0.054c0-118.204 46.012-229.444 129.638-313.242 80.201-80.148 190.964-129.723 313.306-129.741h307.238c34.679 0 62.874 27.989 62.874 62.396v137.216c20.228 30.517 37.521 65.6 50.122 102.846l0.941 3.206 0.068 0.239c13.706 40.94 21.654 88.084 21.743 137.071v0.042c0 59.29-11.537 116.873-34.338 171.145zM548.693 130.219h-79.087v79.155h79.087v-79.155zM688.708 412.194c-6.929-11.878-23.962-33.109-66.014-66.833-29.457-23.825-47.206-42.53-56.013-58.982-5.769-10.718-13.483-32.802-17.988-53.999h-80.282l-1.092 7.817c0.137 20.651 2.389 37.239 6.69 49.323 4.724 12.982 11.368 24.175 19.711 33.864l-0.118-0.141c6.827 8.021 24.678 25.771 70.861 64.887 27.785 23.108 41.267 45.841 41.267 69.461 0 28.023-11.639 45.056-21.402 54.409-13.79 13.244-33.246 19.968-57.754 19.968-25.839 0-48.572-9.421-65.775-27.204-14.302-14.78-17.067-35.191-18.534-57.207l-97.417 16.043c7.373 36.011 22.733 65.161 46.592 88.576 28.501 28.058 74.752 42.257 137.455 42.257 48.913 0 88.303-10.103 117.146-30.106 38.093-26.317 56.593-60.041 56.559-103.253 0-16.93-4.54-32.939-13.858-48.913z" />
<glyph unicode="&#xe658;" glyph-name="delete" d="M713.034 694.689v109.655c0 45.434-28.474 73.103-74.967 73.103h-252.17c-46.421 0-74.931-27.67-74.931-73.103v-109.655h-219.31v-73.103h73.103v-621.378c0-65.866 41.23-109.655 109.655-109.655h475.172c66.853 0 109.655 40.645 109.655 109.655v621.378h73.103v73.103h-219.31zM384.069 804.344h255.862l-1.535-109.655h-254.327v109.655zM786.138-36.344h-548.275v657.93h548.275v-657.93zM457.172 548.483h-71.276l-1.828-475.172h73.103v475.172zM639.931 548.483h-73.103v-475.172h73.103v475.172z" />
<glyph unicode="&#xe659;" glyph-name="fabu" d="M838.035 102.658l-387.144 119.124 387.146 446.707-506.27-446.707-297.808 119.122 952.98 506.27-148.905-744.515zM450.891-76.027v208.465l119.118-59.561-119.118-148.904z" />
<glyph unicode="&#xe65a;" glyph-name="icon_clone" horiz-adv-x="1025" d="M992.001-96h-779.026v779.026h779.026zM272.9-36.075h659.176v659.176h-659.176zM153.050 82.577h-121.049v781.423h781.423v-121.049h-62.322v58.727h-656.779v-656.779h58.727v-62.322z" />
<glyph unicode="&#xe65b;" glyph-name="youjian" d="M960.992 71.232c0-19.712-5.536-37.952-14.432-54.048l-283.84 317.568 280.768 245.632c10.912-17.344 17.504-37.696 17.504-59.68v-449.472zM511.488 277.12l390.688 341.824c-16.032 8.768-34.080 14.144-53.568 14.144h-674.24c-19.52 0-37.568-5.376-53.536-14.144l390.656-341.824zM620.416 297.792l-90.432-79.168c-5.28-4.608-11.872-6.912-18.496-6.912s-13.216 2.304-18.496 6.912l-90.464 79.168-287.424-321.632c17.216-10.816 37.408-17.28 59.264-17.28h674.24c21.824 0 42.048 6.464 59.264 17.28l-287.456 321.632zM79.488 580.416c-10.912-17.312-17.472-37.696-17.472-59.68v-449.472c0-19.712 5.504-37.952 14.432-54.048l283.808 317.632-280.768 245.568zM79.488 580.416" />
<glyph unicode="&#xe65c;" glyph-name="ad-icon-tooltip" d="M513.806-54.556c-240.198 0-435.245 194.747-435.245 435.245s194.747 435.245 435.245 435.245 435.245-194.747 435.245-435.245-195.048-435.245-435.245-435.245zM513.806 757.54c-208.292 0-377.152-168.861-377.152-377.152s168.861-377.152 377.152-377.152 377.152 168.861 377.152 377.152-168.861 377.152-377.152 377.152zM579.424 366.542c-36.12-21.070-53.578-48.461-52.073-81.571v-20.468h-51.471s-1.806 41.538 6.020 68.327c6.622 21.973 26.187 44.849 52.073 63.21 45.451 30.1 66.521 61.103 63.511 93.009-4.515 45.451-31.003 69.531-79.163 72.541-55.986 1.505-91.504-29.498-106.554-93.009l-54.782 26.187 9.030 23.478c24.983 64.414 78.862 95.718 161.336 93.009 81.571-4.515 126.119-43.946 133.644-117.691 4.515-46.956-22.575-89.397-81.571-127.022zM527.953 149.521h-52.073v58.093h52.073v-58.093z" />
<glyph unicode="&#xe65d;" glyph-name="pingfen" d="M765.363-39.859c-4.173 0-8.371 1.024-12.186 3.072l-253.107 136.934-262.4-135.014c-3.396-1.788-7.42-2.838-11.69-2.838-5.971 0-11.462 2.052-15.807 5.489l0.053-0.041c-6.027 4.714-9.865 11.987-9.865 20.156 0 2.067 0.246 4.078 0.71 6.003l-0.035-0.174 64.128 275.123-206.976 192.589c-7.322 6.81-10.010 17.229-6.886 26.701s11.469 16.307 21.376 17.459l293.274 34.022 133.478 254.541c4.531 8.653 13.389 14.413 23.373 13.696 10.010-0.274 18.561-6.254 22.539-14.793l0.066-0.158 116.070-254.541 290.074-36.224c12.706-1.634 22.424-12.383 22.424-25.402 0-7.698-3.398-14.602-8.775-19.295l-0.030-0.026-220.442-191.565 45.082-270.925c1.068-2.712 1.687-5.853 1.687-9.139 0-14.138-11.462-25.6-25.6-25.6-0.008 0-0.016 0-0.024 0h0.001l-0.512-0.051zM500.403 154.701c4.198 0 8.397-1.024 12.186-3.072l218.931-118.451-39.654 238.387c-0.222 1.266-0.349 2.725-0.349 4.213 0 7.694 3.394 14.595 8.767 19.288l0.030 0.026 187.981 163.328-247.347 30.899c-8.989 1.141-16.434 6.81-20.056 14.613l-0.066 0.158-100.326 220.006-115.507-220.237c-3.918-7.361-11.131-12.521-19.616-13.531l-0.121-0.012-251.622-29.184 177.254-164.915c6.707-6.246 9.574-15.616 7.501-24.55l-54.938-235.674 225.203 115.891c3.419 1.768 7.463 2.808 11.748 2.816h0.002z" />
<glyph unicode="&#xe65e;" glyph-name="tupian" d="M900.311 802.829h-776.625c-48.825 0-90.022-39.671-90.022-90.022v-657.615c0-48.825 39.671-90.022 90.022-90.022h776.625c48.825 0 90.022 39.671 90.022 90.022v657.615c0 50.351-39.671 90.022-90.022 90.022zM94.696 712.807c0 16.784 13.732 30.516 30.516 30.516h776.625c16.784 0 30.517-13.732 30.517-30.516v-352.457c-48.826 39.671-131.218 93.074-231.919 93.074-93.074 0-183.095-71.712-271.591-140.373-67.135-53.403-137.321-108.331-186.145-108.331-68.661 0-128.167 50.351-148.002 70.186v437.901h-0.001zM930.827 56.719c0-16.784-13.732-30.516-30.516-30.516h-776.625c-16.784 0-30.516 13.732-30.516 30.516v141.899c35.093-25.938 86.97-51.877 148-51.877 70.187 0 144.95 57.98 222.766 120.538 79.341 62.557 163.26 128.166 234.97 128.166 128.167 0 230.395-112.908 231.919-114.435v-224.29h0.001zM332.719 384.763c65.609 0 119.012 53.403 119.012 119.012s-53.403 119.011-119.012 119.011c-65.608 0-119.011-53.402-119.011-119.011s53.403-119.012 119.011-119.012zM332.719 564.806c33.568 0 59.506-27.465 59.506-59.506 0-33.567-27.464-59.506-59.506-59.506-33.567 0-59.505 27.465-59.505 59.506 0 32.042 27.464 59.506 59.505 59.506z" />
<glyph unicode="&#xe65f;" glyph-name="ic" d="M872-95.94h-720c-66.274 0-120 53.726-120 120v720c0 66.274 53.726 120 120 120v0h720c66.274 0 120-53.726 120-120v0-720c0-66.274-53.726-120-120-120v0zM812 84h-600v-60h600v60zM464.3 264l-132.3 132.36 227.7 227.64 132.3-132.3-227.7-227.7zM212 144.060l50.88 179.94 129.12-129.12-180-50.82zM572 631.44l87.72 87.72c24.18 24.24 62.88 24.9 86.34 1.38l42.48-42.48c23.46-23.46 22.86-62.1-1.38-86.34l-87.72-87.72" />
<glyph unicode="&#xe660;" glyph-name="switch" d="M752.282 634.385h-480.563c-138.285 0-250.385-112.102-250.385-250.385 0-138.287 112.1-250.385 250.385-250.385h480.563c138.285 0 250.385 112.098 250.385 250.385 0 138.283-112.1 250.385-250.385 250.385zM752.282 159.215h-480.563c-123.947 0-224.785 100.838-224.785 224.785s100.838 224.785 224.785 224.785h480.563c123.947 0 224.785-100.838 224.785-224.785s-100.838-224.785-224.785-224.785zM574.639 384c0-92.251 74.784-167.036 167.036-167.036s167.036 74.784 167.036 167.036v0c0 92.251-74.784 167.036-167.036 167.036s-167.036-74.784-167.036-167.036v0z" />
<glyph unicode="&#xe661;" glyph-name="shangchuan" d="M909.941 461.941c-36.92 37.168-84.981 63.228-138.754 72.751l-1.566 0.23c-22.008 123.972-128.952 216.899-257.6 216.899s-235.592-92.928-257.367-215.32l-0.233-1.579c-55.339-9.753-103.4-35.813-140.306-72.967l-0.014-0.014c-49.525-49.483-76.768-115.040-76.768-184.608s27.243-135.125 76.725-184.608 115.040-76.725 184.608-76.725h218.357c26.51 0 48 21.49 48 48v0 182.784l38.709-38.784c8.686-8.686 20.686-14.059 33.941-14.059 26.51 0 48 21.49 48 48 0 13.255-5.373 25.255-14.059 33.941l-120.757 120.821c-0.533 0.523-1.067 1.067-1.611 1.536l-0.896 0.779-0.885 0.757c-0.373 0.309-0.757 0.597-1.141 0.896l-0.693 0.533c-0.416 0.309-0.843 0.608-1.269 0.907l-0.629 0.437c-0.448 0.299-0.885 0.576-1.333 0.853-0.213 0.139-0.427 0.277-0.651 0.405-0.437 0.267-0.875 0.512-1.323 0.757l-0.725 0.416c-0.427 0.224-0.843 0.437-1.269 0.64l-0.853 0.427-1.173 0.533-1.067 0.437-1.067 0.405q-0.597 0.245-1.184 0.448c-0.309 0.117-0.608 0.213-0.917 0.309l-1.344 0.437-0.811 0.235-1.461 0.395-0.757 0.171-1.536 0.341-0.757 0.128c-0.512 0.096-1.067 0.192-1.547 0.267l-0.864 0.107c-0.48 0.064-0.96 0.128-1.44 0.171s-0.768 0.064-1.163 0.085-0.779 0.075-1.184 0.085c-0.725 0-1.451 0.053-2.133 0.064h-0.363c-0.725 0-1.451 0-2.133-0.064-0.405 0-0.8-0.053-1.195-0.085s-0.768 0-1.152-0.085-0.96-0.107-1.44-0.171l-0.864-0.107c-0.523-0.075-1.067-0.171-1.547-0.267l-0.757-0.128-1.547-0.341-0.736-0.171-1.483-0.405c-0.267-0.075-0.533-0.139-0.8-0.224l-1.355-0.437-0.896-0.299-2.272-0.864c-0.352-0.139-0.693-0.299-1.067-0.448l-1.152-0.523-0.875-0.427-1.248-0.64-0.747-0.416c-0.437-0.245-0.875-0.491-1.312-0.757-0.224-0.128-0.437-0.277-0.661-0.416-0.437-0.277-0.885-0.544-1.312-0.843-0.224-0.139-0.437-0.299-0.651-0.448-0.416-0.288-0.843-0.587-1.259-0.896l-0.704-0.544-1.131-0.885-0.907-0.779c-0.288-0.256-0.587-0.501-0.864-0.757-0.565-0.501-1.067-1.067-1.643-1.557l-0.085-0.075-0.096-0.107c-0.523-0.523-1.067-1.067-1.536-1.611l-0.768-0.896c-0.256-0.288-0.512-0.576-0.757-0.875l-0.395-0.491-117.067-117.131c-8.686-8.686-14.059-20.686-14.059-33.941 0-26.51 21.49-48 48-48 13.255 0 25.255 5.373 33.941 14.059v0l38.741 38.784v-134.4h-170.357c-91.168 0-165.333 74.165-165.333 165.333s74.165 165.333 165.333 165.333h48v48c0 91.168 74.165 165.333 165.333 165.333s165.333-74.165 165.333-165.333v-48h48c91.168 0 165.333-74.165 165.333-165.333s-74.165-165.333-165.333-165.333c-26.51 0-48-21.49-48-48s21.49-48 48-48v0c69.568 0 135.136 27.253 184.608 76.725s76.725 115.040 76.725 184.608-27.243 135.125-76.725 184.608z" />
<glyph unicode="&#xe662;" glyph-name="zhage" horiz-adv-x="1371" d="M1127.44 712.121h-188.33v-656.279h188.337c12.995 0 24.062 4.595 33.298 13.734 9.191 9.191 13.801 20.205 13.801 33.147v562.518c0 12.935-4.61 23.987-13.794 33.147-9.244 9.168-20.31 13.764-33.306 13.764v-0.030zM844.934 712.151h-282.506v-656.272h282.506v656.279zM468.26 55.879v656.279h-188.337c-12.995 0-24.062-4.595-33.298-13.771-9.176-9.153-13.801-20.205-13.801-33.147v-562.503c0-12.943 4.626-23.956 13.794-33.147 9.244-9.138 20.31-13.734 33.306-13.734l188.337 0.030zM279.915 805.875h847.532c38.956 0 72.261-13.734 99.856-41.208 27.595-27.467 41.389-60.614 41.389-99.427v-562.51c0-38.782-13.794-71.96-41.389-99.412-27.595-27.46-60.901-41.193-99.856-41.193h-847.532c-38.956 0-72.276 13.734-99.856 41.193-27.595 27.452-41.389 60.629-41.389 99.412v562.51c0 38.813 13.794 71.96 41.389 99.427 27.573 27.475 60.901 41.208 99.864 41.208z" />
<glyph unicode="&#xe663;" glyph-name="RectangleCopy" d="M74.55 755.17v-742.34h861.645v742.34h-861.645zM74.55 808.194h861.645c29.285 0 53.024-23.74 53.024-53.024v0-742.34c0-29.285-23.74-53.024-53.024-53.024h-861.645c-29.285 0-53.024 23.74-53.024 53.024v0 742.34c0 29.285 23.74 53.024 53.024 53.024v0zM495.43 794.938h39.768v-821.876h-39.768z" />
<glyph unicode="&#xe664;" glyph-name="sync" d="M881.87 870.852l7.932-165.532c-90.97 106.872-226.454 174.68-377.802 174.68-242.374 0-444.134-173.848-487.408-403.648-2.776-14.738 8.616-28.352 23.614-28.352h98.168c11.14 0 20.754 7.684 23.352 18.518 37.088 154.666 176.136 269.482 342.274 269.482 121.786 0 229.024-61.712 292.208-155.602l-203.060 9.73c-13.69 0.656-25.148-10.266-25.148-23.972v-94.822c0-13.254 10.746-24 24-24h400.666c13.254 0 24 10.746 24 24v400.666c0 13.254-10.746 24-24 24h-94.822c-13.706 0-24.63-11.458-23.974-25.148zM512 32c-121.79 0-229.034 61.716-292.218 155.61l203.736-9.742c13.69-0.654 25.146 10.268 25.146 23.972v94.824c0 13.254-10.746 24-24 24h-400.664c-13.254 0-24-10.746-24-24v-400.664c0-13.254 10.746-24 24-24h94.77c13.726 0 24.656 11.49 23.97 25.198l-8.258 165.15c90.968-106.68 226.328-174.348 377.518-174.348 242.374 0 444.134 173.848 487.408 403.648 2.776 14.738-8.616 28.352-23.614 28.352h-98.168c-11.14 0-20.754-7.684-23.352-18.518-37.088-154.666-176.136-269.482-342.274-269.482z" />
<glyph unicode="&#xe665;" glyph-name="gengduo1" d="M501.68-49.673l-403.416 403.416c-17.387 17.387-45.576 17.387-62.963 0s-17.387-45.576 0-62.964l464.586-464.586 464.586 464.586c17.387 17.387 17.387 45.576 0 62.964s-45.576 17.387-62.963 0l-399.829-403.416zM500.957 396.267l-402.693 402.693c-17.387 17.387-45.576 17.387-62.963 0s-17.387-45.576 0-62.964l464.586-464.586 464.586 464.586c17.387 17.387 17.387 45.576 0 62.964s-45.576 17.387-62.963 0l-400.552-402.693z" />
<glyph unicode="&#xe666;" glyph-name="gengduo2" d="M927.999 64h-825.599c-25.6 0-44.8 32-25.6 51.2l415.999 569.6c12.8 19.2 44.8 19.2 57.6 0l403.202-569.601c19.2-19.2 0-51.2-25.6-51.2z" />
<glyph unicode="&#xe667;" glyph-name="gongzuotai" d="M81.92 90.778h860.16c17.051-1.207 30.427-15.336 30.427-32.589s-13.376-31.382-30.323-32.583l-0.104-0.006h-860.16c-17.051 1.207-30.427 15.336-30.427 32.589s13.376 31.382 30.323 32.583l0.104 0.006zM788.48 742.4h-552.96c-51.613-3.067-92.308-45.673-92.308-97.783 0-1.894 0.054-3.776 0.16-5.643l-0.012 0.259v-380.109c-0.091-1.581-0.143-3.43-0.143-5.291 0-52.14 40.677-94.779 92.027-97.914l0.276-0.013h553.472c51.384 3.329 91.801 45.821 91.801 97.753 0 1.923-0.055 3.833-0.165 5.729l0.012-0.262v380.006c0.093 1.596 0.146 3.463 0.146 5.342 0 52.141-40.678 94.78-92.030 97.915l-0.275 0.013zM512 188.518c-0.566-0.035-1.228-0.055-1.894-0.055-18.012 0-32.614 14.602-32.614 32.614s14.602 32.614 32.614 32.614c18.011 0 32.612-14.6 32.614-32.61v0c0.009-0.278 0.014-0.606 0.014-0.935 0-17.156-13.654-31.123-30.687-31.627l-0.046-0.001zM819.2 286.259h-614.4v352.87c-0.032 0.539-0.050 1.168-0.050 1.802 0 17.225 13.416 31.316 30.368 32.394l0.094 0.005h553.267c17.047-1.083 30.463-15.175 30.463-32.399 0-0.634-0.018-1.264-0.054-1.889l0.004 0.086v-352.87z" />
<glyph unicode="&#xe668;" glyph-name="yulan" d="M608-96h-456c-66.24 0-120 53.76-120 120v720c0 66.24 53.76 120 120 120h576c66.24 0 120-53.76 120-120v-216c0-13.44-10.56-24-24-24s-24 10.56-24 24v216c0 39.84-32.16 72-72 72h-576c-39.84 0-72-32.16-72-72v-720c0-39.84 32.16-72 72-72h456c13.44 0 24-10.56 24-24s-10.56-24-24-24zM680 624h-480c-13.44 0-24 10.56-24 24s10.56 24 24 24h480c13.44 0 24-10.56 24-24s-10.56-24-24-24zM392 447.84h-192c-13.44 0-24 10.56-24 24s10.56 24 24 24h192c13.44 0 24-10.56 24-24s-10.56-24-24-24zM296 272.16h-96c-13.44 0-24 10.56-24 24s10.56 24 24 24h96c13.44 0 24-10.56 24-24s-10.56-24-24-24zM344 96h-144c-13.44 0-24 10.56-24 24s10.56 24 24 24h144c13.44 0 24-10.56 24-24s-10.56-24-24-24zM632 24c-132.48 0-240 107.52-240 240s107.52 240 240 240 240-107.52 240-240-107.52-240-240-240zM632 456c-106.080 0-192-85.92-192-192s85.92-192 192-192 192 85.92 192 192-85.92 192-192 192zM968-96c-6.24 0-12.48 2.4-16.8 7.2l-177.6 177.6c-9.6 9.6-9.6 24.48 0 34.080s24.48 9.6 34.080 0l177.6-177.6c9.6-9.6 9.6-24.48 0-34.080-4.8-4.8-11.040-7.2-17.28-7.2z" />
<glyph unicode="&#xe669;" glyph-name="rili" horiz-adv-x="1138" d="M398.222 721.455h341.334v85.333h-341.334v-85.333zM910.222 721.455h85.574c23.187 0 42.426-19.83 42.426-45.14v-659.62c0-25.187-19.434-45.14-42.878-45.14h-852.91c-23.49 0-42.878 19.879-42.878 45.14v659.62c0 25.298 19.31 45.14 43.007 45.14h86.94v85.333h-86.94c-71.351 0-128.34-58.558-128.34-130.473v-659.62c0-71.92 57.11-130.473 128.21-130.473h852.911c71.082 0 128.212 58.653 128.212 130.473v659.62c0 71.871-56.858 130.473-127.76 130.473h-85.574v-85.333zM270.222 853.59c0 23.422 18.938 42.41 42.668 42.41 23.564 0 42.667-18.984 42.667-42.41v-179.144c0-23.423-18.939-42.41-42.667-42.41-23.564 0-42.667 18.983-42.667 42.41v179.144zM782.222 853.623c0 23.404 18.938 42.377 42.668 42.377 23.564 0 42.667-18.969 42.667-42.377v-179.003c0-23.405-18.939-42.378-42.667-42.378-23.564 0-42.667 18.97-42.667 42.378v179.003zM270.222 457.697c0 23.564 19.198 42.667 42.959 42.667h511.416c23.725 0 42.959-18.939 42.959-42.667 0-23.564-19.198-42.667-42.96-42.667h-511.414c-23.725 0-42.959 18.939-42.959 42.667zM270.222 237.899c0 23.564 19.198 42.667 42.959 42.667h511.416c23.725 0 42.959-18.939 42.959-42.667 0-23.564-19.198-42.667-42.96-42.667h-511.414c-23.725 0-42.959 18.939-42.959 42.667z" />
<glyph unicode="&#xe66a;" glyph-name="gengduo3" horiz-adv-x="1045" d="M968.96 365.056c4.608 4.608 6.656 10.752 6.656 16.896s-2.56 12.8-6.656 16.896M968.96 399.36l-439.808 459.264c-19.456 19.968-51.712 18.944-70.656-1.024-19.456-19.968-19.456-52.736 0-72.704l385.024-402.432-385.024-402.432c-19.456-19.968-18.944-52.736 0-72.704 19.456-19.968 51.712-21.504 70.656-1.024l439.808 459.264v33.792zM525.056 365.056c4.608 4.608 6.656 10.752 6.656 16.896s-2.56 12.8-6.656 16.896M525.056 399.36l-439.808 459.264c-19.456 19.968-51.712 18.944-70.656-1.024-19.456-19.968-19.456-52.736 0-72.704l385.024-402.432-385.024-402.432c-19.456-19.968-18.944-52.736 0-72.704 19.456-19.968 51.712-21.504 70.656-1.024l439.808 459.264v33.792z" />
<glyph unicode="&#xe66b;" glyph-name="clear" d="M198.957 363.13h626.087v-62.609h-626.087v62.609zM198.957 258.783l-41.739-333.913h106.664l18.553 187.826 18.553-187.826h422.024l18.553 187.826 18.553-187.826h106.664l-41.739 333.913h-626.087M780.216 530.087h-149.739c-12.897 0-22.706 11.562-20.577 24.292l27.318 164.786c0 68.473-55.492 123.965-123.965 123.965h-2.504c-68.473 0-123.965-55.492-123.965-123.965l27.318-164.786c2.129-12.73-7.68-24.292-20.577-24.292h-152.828c-23.061 0-41.739-18.678-41.739-41.739v-83.478h626.087v80.39c0 24.647-20.16 44.828-44.828 44.828v0zM512 759.652c23.061 0 41.739-18.678 41.739-41.739s-18.678-41.739-41.739-41.739c-23.061 0-41.739 18.678-41.739 41.739s18.678 41.739 41.739 41.739v0z" />
<glyph unicode="&#xe66c;" glyph-name="danwei" d="M597.333 618.667h277.333c35.328 0 64-28.843 64-64v-682.667h-853.333v960c0 0 0 0 0 0 0 35.286 28.557 63.903 63.82 64h384.436c0 0 0 0 0.001 0 35.205 0 63.744-28.539 63.744-63.744 0-0.090 0-0.18-0.001-0.27v0.014-213.333zM256 405.333h192c23.564 0 42.667 19.103 42.667 42.667s-19.103 42.667-42.667 42.667h-192c-23.564 0-42.667-19.103-42.667-42.667s19.103-42.667 42.667-42.667v0zM256 192h192c0.002 0 0.004 0 0.007 0 23.564 0 42.667 19.103 42.667 42.667s-19.103 42.667-42.667 42.667c-0.002 0-0.005 0-0.007 0h-192c-0.002 0-0.004 0-0.007 0-23.564 0-42.667-19.103-42.667-42.667s19.103-42.667 42.667-42.667c0.002 0 0.005 0 0.007 0v0zM245.333 618.667h192c0.002 0 0.004 0 0.007 0 23.564 0 42.667 19.103 42.667 42.667s-19.103 42.667-42.667 42.667c-0.002 0-0.005 0-0.007 0h-192c-0.002 0-0.004 0-0.007 0-23.564 0-42.667-19.103-42.667-42.667s19.103-42.667 42.667-42.667c0.002 0 0.005 0 0.007 0v0z" />
<glyph unicode="&#xe66d;" glyph-name="shoujianxiang" d="M989.1-128h-954.2c-19.3 0-34.9 15.6-34.9 34.9v584.1c0 19.3 15.6 34.9 34.9 34.9s34.9-15.6 34.9-34.9v-549.1h884.3v549.1c0 19.3 15.6 34.9 34.9 34.9s34.9-15.6 34.9-34.9v-584.1c0.1-19.3-15.5-34.9-34.8-34.9zM512 164c-6.3 0-12.6 1.7-18.2 5.1l-477.1 292c-16.4 10.1-21.6 31.6-11.5 48s31.5 21.6 48 11.5l458.8-280.7 458.9 280.9c16.5 10.1 37.9 4.9 48-11.5s4.9-37.9-11.5-48l-477.1-292c-5.7-3.6-12-5.3-18.3-5.3zM989 456.1c-6.2 0-12.5 1.6-18.2 5.1l-131 80.2c-16.4 10.1-21.6 31.6-11.5 48s31.5 21.6 48 11.5l131-80.2c16.4-10.1 21.6-31.6 11.5-48-6.5-10.7-18-16.6-29.8-16.6zM35 456.1c-11.8 0-23.2 5.9-29.8 16.7-10.1 16.4-4.9 37.9 11.5 48l136.9 83.8c16.4 10.1 37.9 4.9 48-11.5s4.9-37.9-11.5-48l-136.9-83.9c-5.7-3.5-12-5.1-18.2-5.1zM830.1 361.4c-19.3 0-34.9 15.6-34.9 34.9v429.9h-566.3v-429.9c0-19.3-15.6-34.9-34.9-34.9s-35 15.6-35 34.9v464.8c0 19.3 15.7 34.9 34.9 34.9h636.1c19.3 0 35-15.6 35-34.9v-464.8c0-19.3-15.7-34.9-34.9-34.9zM685.5 670.3h-347c-19.3 0-34.9 15.6-34.9 34.9s15.6 34.9 34.9 34.9h347c19.3 0 34.9-15.6 34.9-34.9s-15.6-34.9-34.9-34.9zM685.5 540.2h-347c-19.3 0-34.9 15.6-34.9 34.9s15.6 34.9 34.9 34.9h347c19.3 0 34.9-15.6 34.9-34.9s-15.6-34.9-34.9-34.9zM685.5 410.1h-347c-19.3 0-34.9 15.6-34.9 34.9s15.6 34.9 34.9 34.9h347c19.3 0 34.9-15.6 34.9-34.9s-15.6-34.9-34.9-34.9z" />
<glyph unicode="&#xe66e;" glyph-name="gengduo4" d="M915.2 652.8l-403.2-403.2-403.2 403.2c-25.6 25.6-64 25.6-89.6 0s-25.6-64 0-89.6l448-448c25.6-25.6 64-25.6 89.6 0l448 448c12.8 12.8 19.2 32 19.2 44.8s-6.4 32-19.2 44.8c-25.6 25.6-64 25.6-89.6 0z" />
<glyph unicode="&#xe66f;" glyph-name="ic_join_dialing_norm" d="M448 448v384c0 35.346 28.654 64 64 64s64-28.654 64-64v0-384h384c35.346 0 64-28.654 64-64s-28.654-64-64-64v0h-384v-384c0-35.346-28.654-64-64-64s-64 28.654-64 64v0 384h-384c-35.346 0-64 28.654-64 64s28.654 64 64 64v0h384z" />
<glyph unicode="&#xe670;" glyph-name="gengduo5" d="M919.142 476.149l-707.24 403.15c-15.365 9.023-33.842 14.353-53.563 14.353-58.944 0-106.768-47.607-107.121-106.468v-806.332c0.353-58.894 48.177-106.501 107.121-106.501 19.722 0 38.198 5.329 54.069 14.626l-0.506-0.274 707.24 403.15c32.266 18.575 53.64 52.866 53.64 92.148s-21.374 73.573-53.127 91.876l-0.513 0.273z" />
<glyph unicode="&#xe671;" glyph-name="icon02" d="M509.867-134.354c-285.509 0-516.96 231.498-516.96 517.043s231.451 517.026 516.96 517.026c285.511 0 516.962-231.48 516.962-517.026s-231.451-517.043-516.962-517.043zM509.867 835.089c-249.823 0-452.339-202.545-452.339-452.4s202.516-452.403 452.339-452.403 452.339 202.548 452.339 452.403-202.516 452.4-452.339 452.4zM703.727 350.369h-161.547v-161.572c0-17.837-14.466-32.308-32.31-32.308s-32.308 14.471-32.308 32.308v161.572h-161.552c-17.844 0-32.31 14.469-32.31 32.32 0 17.839 14.469 32.308 32.31 32.308h161.552v161.579c0 17.837 14.466 32.301 32.308 32.301 17.847 0 32.31-14.461 32.31-32.301v-161.579h161.547c17.847 0 32.31-14.469 32.31-32.308 0-17.852-14.464-32.32-32.31-32.32z" />
<glyph unicode="&#xe672;" glyph-name="xiugai" d="M772.129 515.364l-182.52 184.248-390.127-403.31-68.029-257.397v-0.448l248.309 71.485 392.367 405.422zM742.37 857.365l-97.788-100.924 183.16-183.544 94.844 98.108c23.109 24.19 37.332 57.040 37.332 93.212s-14.223 69.022-37.381 93.264l0.049-0.052c-22.722 23.785-54.688 38.571-90.108 38.571s-67.386-14.787-90.063-38.523l-0.045-0.048zM64-5.765h895.961v-122.235h-895.961v122.235z" />
<glyph unicode="&#xe673;" glyph-name="xiaoxi" d="M246.9 283.5v185c0 115.8 94.7 210.5 210.5 210.5h96c115.8 0 210.5-94.7 210.5-210.5v-185M421.5 639v44.5c0 46.2 37.8 84 84 84s84-37.8 84-84v-44.5M161.9 144.5c0 94.9 77.6 172.5 172.5 172.5h342c94.9 0 172.5-77.6 172.5-172.5M627 93.9c-5.1-62.6-57.6-111.9-121.6-111.9-63.5 0-115.7 48.5-121.5 110.5" />
<glyph unicode="&#xe674;" glyph-name="gengduo6" d="M685.207 479.96l-364.943 396.79c-11.288 11.843-27.183 19.207-44.799 19.207s-33.511-7.364-44.775-19.182l-0.024-0.025c-11.843-11.288-19.207-27.183-19.207-44.799s7.364-33.511 19.182-44.775l0.025-0.024 364.841-396.789c6.35-6.349 6.35-12.8 0-12.8l-371.19-396.789c-11.811-11.284-19.153-27.158-19.153-44.748s7.343-33.464 19.13-44.725l0.024-0.022c19.354-12.902 32.051-19.25 44.85-19.25 0.49-0.015 1.067-0.023 1.646-0.023 17.132 0 32.53 7.42 43.157 19.221l0.046 0.052 364.74 396.687c29.848 22.863 48.904 58.518 48.904 98.625 0 37.181-16.377 70.536-42.311 93.247l-0.143 0.123z" />
<glyph unicode="&#xe675;" glyph-name="caidan-tianchong" d="M352.256 793.6h-201.728c-51.2 0-92.672-38.4-92.672-89.6v-204.8c0-51.2 41.472-89.6 89.6-89.6h204.8c51.2 0 89.6 41.472 89.6 89.6v204.8c-0.512 51.2-38.4 89.6-89.6 89.6zM937.472 665.6l-143.872 143.872c-35.328 35.328-92.672 35.328-128 0l-143.872-143.872c-15.872-15.872-25.6-38.4-25.6-64s9.728-48.128 25.6-64l143.872-143.872c15.872-15.872 38.4-25.6 64-25.6s48.128 9.728 64 25.6l143.872 143.872c15.872 15.872 25.6 38.4 25.6 64 3.584 25.6-6.144 48.128-25.6 64zM352.256 313.344h-201.728c-51.2 0-89.6-41.472-89.6-89.6v-204.8c0-51.2 41.472-89.6 89.6-89.6h201.728c51.2 0 89.6 41.472 89.6 89.6v204.8c-0.512 51.712-38.4 89.6-89.6 89.6zM832 313.344h-204.8c-51.2 0-89.6-41.472-89.6-89.6v-204.8c0-51.2 41.472-89.6 89.6-89.6h204.8c51.2 0 89.6 41.472 89.6 89.6v204.8c0 51.712-38.4 89.6-89.6 89.6z" />
<glyph unicode="&#xe676;" glyph-name="bumen" d="M395.776 8.96c-21.76 4.864-35.072 8.96-39.68 12.288-5.632 4.096-9.728 16.128-12.544 36.608-0.768 5.632-1.28 11.52-1.536 17.152v8.192c-3.072-7.168-9.728-11.776-18.688-11.776h-61.696c-12.288 0-20.48 8.448-20.48 20.992v125.44c0 12.544 8.192 20.992 20.48 20.992h61.696c8.96 0 15.872-4.352 18.688-11.776 1.28-2.816 1.792-6.144 1.792-9.216v-104.192c0.768 7.168 1.792 14.848 3.072 22.784 3.072 18.432 10.752 32.256 22.784 41.728 13.056 9.984 27.648 17.408 43.008 22.528 16.384 5.632 33.536 10.496 50.944 15.104 1.024 0.256 2.048 0.512 3.328 0.768v64.256c0 12.544 8.192 20.992 20.48 20.992h62.464c0 3.072-0.256 6.4-0.512 9.728-1.024 12.032-4.864 21.248-11.776 27.648-7.424 6.912-15.36 13.824-23.296 20.224-4.352 4.096-8.192 8.96-10.752 14.592-1.792 3.84-3.584 7.68-5.12 11.52h-11.008c-12.288 0-20.48 8.448-20.48 20.992v25.856c-3.328 4.352-6.4 10.752-8.704 18.944-2.56 8.448-3.584 16.128-2.816 22.784 0.512 6.144 2.048 12.032 4.096 17.664 2.304 5.632 5.376 11.008 9.216 15.616-0.512 18.944 0.512 37.888 3.072 56.832 0.512 4.608 1.28 9.216 2.048 14.080-4.608 3.584-7.168 9.472-7.168 16.384v62.464c0 12.544 8.192 20.992 20.48 20.992h30.464c6.144 6.912 13.056 13.056 20.48 18.432 21.504 16.128 46.592 26.88 72.96 30.976 11.776 2.048 23.808 2.816 35.84 3.072 14.336 0 28.416-1.792 42.24-5.12l0.512-0.256v57.344h-570.112l0.512-709.12h-63.488v-85.76h466.688c-17.408 2.048-34.304 4.608-51.2 7.168-28.928 4.608-54.528 9.216-76.288 14.080zM241.408 657.152c0 12.544 8.192 20.992 20.48 20.992h61.696c8.96 0 15.872-4.352 18.688-11.776 1.28-2.816 1.792-6.144 1.792-9.216v-62.72c0-3.072-0.512-6.4-1.792-9.216-3.072-7.168-9.728-11.776-18.688-11.776h-61.696c-12.288 0-20.48 8.448-20.48 20.992v62.72zM241.408 468.992c0 12.544 8.192 20.992 20.48 20.992h61.696c8.96 0 15.872-4.352 18.688-11.776 1.28-2.816 1.792-6.144 1.792-9.216v-62.72c0-3.072-0.512-6.4-1.792-9.216-3.072-7.168-9.728-11.776-18.688-11.776h-61.696c-12.288 0-20.48 8.448-20.48 20.992v62.72zM965.376 123.904c-1.024 9.472-2.816 18.688-5.632 27.648-4.096 12.288-12.032 22.784-22.528 30.464-11.008 7.936-23.296 14.336-36.096 18.944-13.824 5.12-27.648 9.472-41.984 13.056-13.568 3.328-26.88 7.68-39.936 12.544-13.312 5.376-23.808 11.52-31.744 18.176s-13.568 13.824-16.896 21.248c-3.328 7.168-5.376 14.592-5.888 22.272-0.512 7.424 0 14.848 1.536 22.016 0.768 5.12 2.304 9.984 4.608 14.848 1.792 3.84 4.352 7.424 7.168 10.496 3.072 3.072 6.656 5.888 10.24 8.192 4.352 2.816 8.448 6.144 12.544 9.728 4.352 4.096 8.192 8.704 10.752 14.080 3.328 6.144 5.888 12.288 8.448 18.432 2.56 7.424 4.608 14.848 6.656 22.272 5.12 1.536 9.984 4.352 13.824 7.936 4.352 4.096 7.936 8.704 10.752 14.080 3.328 6.144 5.376 14.080 6.912 24.064 1.024 6.4 0.768 13.056-0.512 19.456-1.024 4.608-2.56 8.96-4.864 13.056-1.792 3.584-4.608 6.656-8.192 8.704 0.512 19.2-0.512 38.656-3.584 57.6-2.816 17.664-6.912 35.328-12.8 52.224-6.144 18.432-15.36 35.84-27.648 50.944-6.144 7.424-13.312 14.080-21.248 19.968-9.472 6.912-19.456 12.8-30.208 17.664-11.52 5.376-23.552 9.728-35.84 12.8l-0.512 0.256c-13.312 3.328-27.136 5.12-40.704 5.12-11.52 0-23.296-1.024-34.816-2.816-25.6-4.096-49.664-14.336-70.4-29.952-7.168-5.12-13.824-11.264-19.712-17.664h-1.28c-4.096-4.608-7.936-9.216-11.52-14.336-9.984-14.336-17.408-30.208-22.272-46.848-3.584-11.776-6.4-23.552-8.448-35.584 0.256-0.256 0.768-0.512 1.024-0.768-0.768-4.352-1.536-8.704-2.048-12.8-2.56-18.176-3.584-36.608-3.072-54.784-3.84-4.608-6.656-9.728-8.704-15.104s-3.584-11.008-4.096-16.896c-0.768-6.4 0.256-13.824 2.56-22.016 1.536-5.888 4.096-11.52 7.424-16.64v-1.536l0.256-0.256c2.816-3.584 6.144-7.168 9.472-10.24 3.072-2.304 6.656-4.096 10.24-5.12 2.304-7.424 4.864-14.848 7.424-22.272 1.024-2.56 2.048-4.864 3.072-7.168h1.28c1.536-3.84 3.328-7.424 5.12-11.264 2.56-5.376 5.888-10.24 10.24-14.080 7.68-6.144 15.104-12.8 22.528-19.456 6.656-6.144 10.496-15.104 11.264-26.624 0.256-3.328 0.256-6.4 0.512-9.472 0.256-3.84 0.256-7.424 0.256-10.752 0-6.144-1.024-12.288-3.328-17.92-2.56-6.656-6.656-12.544-11.776-17.408-5.632-5.632-13.568-11.776-23.808-18.176-12.8-7.936-26.88-14.080-41.472-17.92l-3.072-0.768c-16.896-4.352-33.28-9.216-49.408-14.336-15.104-4.864-29.184-12.032-41.472-21.76-11.776-9.216-19.2-22.528-22.016-40.448-1.28-7.68-2.304-14.848-3.072-22.016v-20.48c0-3.072-0.512-6.144-1.792-8.96v-7.936c0.256-5.632 0.512-11.264 1.28-16.64 2.816-19.712 6.656-31.488 12.032-35.328 4.352-3.328 17.152-7.168 38.144-11.776s45.568-8.96 73.472-13.312c16.128-2.56 32.768-4.864 49.408-6.912 12.032-1.536 24.32-2.816 36.608-4.352 29.44-3.072 54.784-4.864 76.288-4.864 14.080 0 30.976 0.768 50.176 2.304s39.424 3.328 59.904 5.888c20.48 2.56 41.216 5.12 62.208 8.192 20.736 3.072 39.424 6.4 56.32 9.984 14.336 3.072 28.416 6.656 42.24 11.264 11.52 3.84 18.432 7.424 20.992 10.752 3.328 5.12 6.144 13.056 7.68 23.040 1.792 10.496 2.56 21.248 2.56 32 0.768 11.52 0.256 22.784-1.024 34.048zM342.272 83.2c1.28 2.816 1.792 6.144 1.792 9.216v21.248c-1.024-8.704-1.536-17.152-1.792-24.832v-5.632zM342.272 83.2" />
<glyph unicode="&#xe677;" glyph-name="gerenzhongxinwoderenwubiaozhuntoumianxing" d="M386.048 393.557c-61.613 41.368-101.618 110.777-101.618 189.529 0 125.676 101.88 227.556 227.556 227.556s227.556-101.88 227.556-227.556c0-78.752-40.005-148.161-100.802-189.013l-0.816-0.516c174.222-53.731 300.743-215.978 300.743-407.78 0-15.709-12.735-28.444-28.444-28.444 0 0-0.001 0-0.001 0h-796.444c0 0-0.001 0-0.001 0-15.709 0-28.444 12.735-28.444 28.444 0 0 0 0.001 0 0.001v0c0 191.8 126.578 354.048 300.715 407.78z" />
<glyph unicode="&#xe67d;" glyph-name="tupianyulan" d="M244.858 870.404h92.29c14.45 0 24.662-7.321 31.021-19.459 6.165-11.56 5.78-23.507-0.962-34.683-7.129-11.944-17.919-17.918-32.178-17.918-47.012 0.193-94.216 0.193-141.23 0-20.037 0-39.112-4.046-56.453-14.259-35.837-21.386-54.719-53.176-55.297-94.795-0.579-37.573-0.193-75.143-0.193-112.714 0-7.9-0.962-15.414-5.395-22.544-8.285-13.68-24.855-20.423-40.653-16.183-15.414 4.239-26.396 18.303-26.396 34.295 0 49.325-0.579 98.842 0.193 148.167 0.577 50.096 21.964 90.17 61.655 120.42 22.35 16.957 47.783 26.396 75.528 29.288 2.12 0.384 4.624 0.384 7.129 0.384h90.942zM779.335 870.404h-92.291c-14.45 0-24.662-7.321-31.021-19.459-6.165-11.56-5.78-23.507 0.964-34.683 7.129-11.944 17.919-17.918 32.176-17.918 47.012 0.193 94.218 0.193 141.23 0 20.039 0 39.112-4.046 56.453-14.259 35.838-21.386 54.72-53.176 55.299-94.795 0.577-37.573 0.193-75.143 0.193-112.714 0-7.9 0.962-15.414 5.394-22.544 8.285-13.68 24.855-20.423 40.655-16.183 15.413 4.239 26.396 18.303 26.396 34.295 0 49.325 0.577 98.842-0.193 148.167-0.577 50.096-21.965 90.17-61.655 120.42-22.35 16.957-47.784 26.396-75.529 29.288-2.505 0.192-5.010 0.384-7.321 0.384h-90.749zM244.858-102.597h92.29c14.45 0 24.662 7.321 31.021 19.46 6.165 11.56 5.78 23.506-0.962 34.681-7.129 11.946-17.919 17.919-32.178 17.919-47.012-0.193-94.216-0.193-141.23 0-20.037 0-39.112 4.046-56.453 14.257-35.837 21.386-54.719 53.178-55.297 94.795-0.579 37.573-0.193 75.144-0.193 112.715 0 7.898-0.962 15.413-5.395 22.542-8.285 13.68-24.855 20.423-40.653 16.183-15.414-4.238-26.396-18.303-26.396-34.295 0-49.324-0.579-98.841 0.193-148.166 0.577-50.096 21.964-90.172 61.655-120.422 22.35-16.955 47.783-26.396 75.528-29.286 2.505-0.193 5.010-0.385 7.321-0.385h90.749zM779.335-102.597h-92.291c-14.45 0-24.662 7.321-31.021 19.46-6.165 11.56-5.78 23.506 0.964 34.681 7.129 11.946 17.919 17.919 32.176 17.919 47.012-0.193 94.218-0.193 141.23 0 20.039 0 39.112 4.046 56.453 14.257 35.838 21.386 54.72 53.178 55.299 94.795 0.577 37.573 0.193 75.144 0.193 112.715 0 7.898 0.962 15.413 5.394 22.542 8.285 13.68 24.855 20.423 40.655 16.183 15.413-4.238 26.396-18.303 26.396-34.295 0-49.324 0.577-98.841-0.193-148.166-0.577-50.096-21.965-90.172-61.655-120.422-22.35-16.955-47.784-26.396-75.529-29.286-2.505-0.193-5.010-0.385-7.321-0.385h-90.749zM214.608 192.386c5.78-14.45 17.534-22.929 31.406-22.929h528.89c9.441 0 17.726 3.854 24.468 11.56s13.68 17.149 13.68 28.13v337.179c0 29.288-12.138 43.93-26.011 49.71-13.872 5.972-28.514 1.541-38.15-11.175l-184.388-244.888c-6.744-9.056-15.606-13.68-26.011-13.68s-19.267 4.624-26.011 13.68l-82.079 109.053c-6.937 9.056-15.8 13.679-26.204 13.679s-19.267-4.816-26.204-13.872l-158.185-214.061c-9.247-12.138-10.982-27.937-5.202-42.388z" />
<glyph unicode="&#xe682;" glyph-name="fuwenbenkuang" d="M198.738 601.891h93.744v-218.732h-31.25v-31.244h124.994v31.244h-31.25v218.732h93.738v-31.244h31.25v93.738h-312.476v-93.738h31.25zM542.463 539.397h312.476v-62.494h-312.476zM542.463 414.409h312.476v-62.494h-312.476zM167.488 289.415h687.451v-62.494h-687.445v62.494zM167.488 164.427h687.451v-62.494h-687.445v62.494zM542.463 664.385h312.476v-62.494h-312.476zM30.982 862.604v-958.89h960.463v958.89h-960.463zM927.061-31.946h-830.123v828.643h830.123v-828.643z" />
<glyph unicode="&#xe68a;" glyph-name="Taskattachments" d="M869.32 792.557c40.009-38.213 64.883-91.979 64.883-151.554 0-49.067-16.873-94.194-45.134-129.894l0.334 0.437-373.63-361.714c-2.333-2.656-4.965-5.288-7.447-7.944-23.522-22.445-55.452-36.258-90.608-36.258s-67.087 13.812-90.66 36.306l0.052-0.049c-23.017 22.086-37.318 53.102-37.318 87.459 0 31.867 12.305 60.86 32.422 82.488l-0.068-0.074q2.482 2.631 4.965 4.965c2.607 2.656 5.536 4.965 8.167 7.447l297.27 287.216c0.298 0.596 0.869 0.894 1.167 1.465 7.039 6.575 16.521 10.611 26.947 10.611s19.908-4.037 26.97-10.632l-0.023 0.021c6.989-6.522 11.346-15.787 11.346-26.070 0-9.2-3.488-17.586-9.213-23.907l0.027 0.030c-0.695-0.77-1.415-1.489-2.16-2.185-0.925-1.131-1.979-2.106-3.152-2.921l-0.050-0.033-294.043-286.596c-3.3-2.030-6.162-4.268-8.749-6.788l0.011 0.011c-9.166-8.829-14.858-21.208-14.858-34.917 0-12.788 4.954-24.419 13.047-33.079l-0.026 0.028c0.596-0.645 1.216-1.241 1.837-1.862 9.338-9.025 22.073-14.587 36.107-14.587s26.769 5.561 36.122 14.601l-0.015-0.014c2.602 2.439 4.908 5.14 6.894 8.075l0.107 0.167 373.357 362.012c14.519 21.347 23.182 47.695 23.182 76.065 0 38.925-16.307 74.041-42.461 98.89l-0.059 0.055c-26.648 25.519-62.869 41.229-102.759 41.229-29.059 0-56.171-8.337-79.074-22.75l0.617 0.362-417.544-414.391c-30.769-36.953-49.445-84.918-49.445-137.246 0-61.192 25.54-116.419 66.542-155.602l0.082-0.077c41.857-39.842 98.625-64.353 161.118-64.353 53.538 0 102.874 17.99 142.293 48.254l-0.555-0.409 286.596 277.163 0.571-0.298c6.992 6.551 16.421 10.574 26.789 10.574 10.521 0 20.075-4.143 27.119-10.885l-0.014 0.014c6.888-6.514 11.175-15.716 11.175-25.92 0-9.27-3.538-17.713-9.338-24.053l0.024 0.027c-0.606-0.664-1.213-1.279-1.844-1.87l-0.018-0.017 0.298-0.298-290.071-280.588-0.298 0.67c-52.592-41.518-119.837-66.596-192.939-66.596-83.525 0-159.403 32.739-215.502 86.083l0.132-0.125c-54.972 52.535-89.145 126.433-89.145 208.312 0 73.056 27.205 139.757 72.037 190.527l-0.269-0.31 417.246 414.739c37.008 27.073 83.424 43.318 133.634 43.318 60.907 0 116.23-23.904 157.1-62.843l-0.092 0.087z" />
</font>
</defs>
</svg>
